<?xml version="1.0" encoding="utf-8"?>
<!-- Generator: Adobe Illustrator 21.0.2, SVG Export Plug-In . SVG Version: 6.00 Build 0)  -->
<svg version="1.1" id="Layer_1" xmlns="http://www.w3.org/2000/svg" xmlns:xlink="http://www.w3.org/1999/xlink" x="0px" y="0px"
	 viewBox="0 0 60 60" style="enable-background:new 0 0 60 60;" xml:space="preserve">
<circle style="fill:#FF5D24;" cx="30.1" cy="30" r="30"/>
<path style="fill:#4F5565;" d="M47.5,8.6c0-0.6-0.5-1.2-1.2-1.2H13.8c-0.6,0-1.2,0.5-1.2,1.2v4h34.9V8.6L47.5,8.6z"/>
<circle style="fill:#F0582F;" cx="16.1" cy="10" r="0.8"/>
<circle style="fill:#FBD303;" cx="19" cy="10" r="0.8"/>
<circle style="fill:#71D456;" cx="21.8" cy="10" r="0.8"/>
<path style="fill:#333842;" d="M41.5,9.1H26c-0.5,0-0.8,0.4-0.8,0.8c0,0.5,0.4,0.8,0.8,0.8h15.5c0.5,0,0.8-0.4,0.8-0.8
	C42.4,9.5,42,9.1,41.5,9.1z"/>
<path style="fill:#FCFCFD;" d="M12.7,12.6v38.8c0,0.6,0.5,1.2,1.2,1.2h32.5c0.6,0,1.2-0.5,1.2-1.2V12.6H12.7z"/>
<rect x="15.8" y="15.8" style="fill:#6EB1E1;" width="28.6" height="16.8"/>
<rect x="15.8" y="36.7" style="fill:#71D456;" width="7.5" height="6.6"/>
<rect x="26.3" y="36.7" style="fill:#F0582F;" width="7.5" height="6.6"/>
<rect x="36.8" y="36.7" style="fill:#257DC0;" width="7.5" height="6.6"/>
<g>
	
		<rect x="43.3" y="44.8" transform="matrix(0.7071 -0.7071 0.7071 0.7071 -19.1773 45.4899)" style="fill:#646B79;" width="4" height="2.2"/>
	<circle style="opacity:0.5;fill:#F1F3F7;enable-background:new    ;" cx="34.9" cy="35.5" r="12.9"/>
	<path style="fill:#4F5565;" d="M34.9,21.4c-7.8,0-14.1,6.3-14.1,14.1s6.3,14.1,14.1,14.1S49,43.3,49,35.5
		C49,27.8,42.7,21.4,34.9,21.4z M34.9,47c-6.3,0-11.5-5.2-11.5-11.5S28.6,24,34.9,24s11.5,5.2,11.5,11.5S41.2,47,34.9,47z"/>
	<g>
		<path style="fill:#4F5565;" d="M51.8,57.3l0.8,0.9c0.2,0.2,0.6,0.3,0.8,0l4.1-4.1c0.2-0.2,0.2-0.6,0-0.8l-0.9-0.8L51.8,57.3z"/>
		<path style="fill:#4F5565;" d="M48.4,45.2c-0.2-0.2-0.6-0.2-0.8,0l-3,3c-0.2,0.2-0.2,0.5,0,0.8l0.3,0.3l3.8-3.8L48.4,45.2z"/>
	</g>
	<polygon style="fill:#4F5565;" points="44.8,49.3 51.8,57.3 56.7,52.5 48.7,45.5 	"/>
</g>
</svg>
