<svg xmlns="http://www.w3.org/2000/svg" width="30" height="30" viewBox="0 0 30 30">
  <defs>
    <style>
      .cls-1 {
        fill: #96a1a6;
      }

      .cls-1, .cls-2, .cls-3, .cls-4 {
        fill-rule: evenodd;
      }

      .cls-2 {
        fill: #bbc7cc;
      }

      .cls-3 {
        fill: #333;
      }

      .cls-4 {
        fill: #ff2443;
      }
    </style>
  </defs>
  <g id="Layer_4" data-name="Layer 4">
    <path id="Nib" class="cls-1" d="M15.946,24.383l-15,5.623,7.679-7.675a1.848,1.848,0,0,0,.762.17,1.87,1.87,0,1,0-1.87-1.87,1.848,1.848,0,0,0,.17.762L0.006,29.069l5.626-11L12.2,13.136l4.688,4.686Z"/>
    <path class="cls-2" d="M5.632,14.073l6.564-.937,2.32,2.318L10.531,19.19a1.834,1.834,0,0,0-1.146-.429,1.87,1.87,0,0,0-1.87,1.87,1.848,1.848,0,0,0,.17.762L0.2,28.876l-0.185.174Z"/>
    <path id="Ring" class="cls-3" d="M13.133,10.324L11.258,12.2l6.563,6.56L19.7,16.885Z"/>
    <path id="Barrel" class="cls-4" d="M29.722,8.239L21.753,0.274a0.941,0.941,0,0,0-1.329,0l-7.968,8.9a0.939,0.939,0,0,0,0,1.328l7.031,7.028a0.939,0.939,0,0,0,1.329,0l8.907-7.965A0.938,0.938,0,0,0,29.722,8.239Z"/>
  </g>
</svg>
