<?xml version="1.0" encoding="iso-8859-1"?>
<!-- Generator: Adobe Illustrator 18.0.0, SVG Export Plug-In . SVG Version: 6.00 Build 0)  -->
<!DOCTYPE svg PUBLIC "-//W3C//DTD SVG 1.1//EN" "http://www.w3.org/Graphics/SVG/1.1/DTD/svg11.dtd">
<svg version="1.1" id="Capa_1" xmlns="http://www.w3.org/2000/svg" xmlns:xlink="http://www.w3.org/1999/xlink" x="0px" y="0px"
	 viewBox="-49 141 512 512" style="enable-background:new -49 141 512 512;" xml:space="preserve">
<circle style="fill:#EA8953;" cx="207" cy="397" r="245.76"/>
<path style="opacity:0.1;enable-background:new    ;" d="M345.496,261.597c-0.87-1.229-1.894-2.253-3.072-3.072
	c-2.048-1.434-4.557-2.304-7.27-2.304H78.846c-6.963,0-12.646,5.632-12.646,12.646v256.307c0,3.328,1.331,6.298,3.43,8.602
	l1.178,1.178l105.879,105.879c9.94,1.224,20.042,1.928,30.313,1.928c135.73,0,245.76-110.03,245.76-245.76
	c0-10.154-0.688-20.142-1.884-29.972L345.65,261.802L345.496,261.597z"/>
<path style="fill:#64798A;" d="M335.158,256.2H78.842c-6.982,0-12.642,5.66-12.642,12.642v256.315
	c0,6.983,5.66,12.643,12.642,12.643h256.315c6.981,0,12.642-5.66,12.642-12.643V268.842C347.8,261.86,342.139,256.2,335.158,256.2z"
	/>
<g>
	<rect x="86.68" y="308.542" style="fill:#FFFFFF;" width="240.64" height="208.778"/>
	<rect x="86.68" y="274.376" style="fill:#FFFFFF;" width="172.068" height="14.556"/>
</g>
<rect x="86.68" y="509.625" style="fill:#EBF0F3;" width="240.64" height="7.695"/>
<circle style="fill:#FCD462;" cx="274.635" cy="281.641" r="7.276"/>
<circle style="fill:#44C4A1;" cx="297.368" cy="281.641" r="7.276"/>
<circle style="fill:#E56353;" cx="320.05" cy="281.641" r="7.276"/>
<rect x="99.531" y="321.634" style="fill:#FCD462;" width="64.328" height="58.865"/>
<rect x="99.531" y="372.014" style="fill:#F6C358;" width="64.328" height="8.494"/>
<g>
	<rect x="186.3" y="321.941" style="fill:#E1E6E9;" width="126.464" height="10.24"/>
	<rect x="186.3" y="348.16" style="fill:#E1E6E9;" width="126.464" height="10.24"/>
	<rect x="186.3" y="374.354" style="fill:#E1E6E9;" width="126.464" height="10.24"/>
	<rect x="99.531" y="400.553" style="fill:#E1E6E9;" width="213.243" height="10.24"/>
	<rect x="99.531" y="426.752" style="fill:#E1E6E9;" width="213.243" height="10.24"/>
	<rect x="99.531" y="452.946" style="fill:#E1E6E9;" width="213.243" height="10.24"/>
	<rect x="99.531" y="479.125" style="fill:#E1E6E9;" width="146.862" height="10.24"/>
</g>
<rect x="241.261" y="365.542" transform="matrix(-0.7071 -0.7071 0.7071 -0.7071 122.3414 900.4414)" style="fill:#44C4A1;" width="12.795" height="118.682"/>
<rect x="250.268" y="374.574" transform="matrix(-0.7071 -0.7071 0.7071 -0.7071 131.3305 922.2292)" style="fill:#3EA69B;" width="12.795" height="118.682"/>
<rect x="259.326" y="383.642" transform="matrix(-0.7071 -0.7071 0.7071 -0.7071 140.3814 944.1138)" style="fill:#31978C;" width="12.795" height="118.682"/>
<path style="fill:#64798A;" d="M192.43,502.137l14.789-5.229c-0.685-3.21-2.262-6.267-4.755-8.761
	c-2.493-2.493-5.551-4.07-8.76-4.755l-5.229,14.79C187.606,500.638,189.972,503.005,192.43,502.137z"/>
<path style="fill:#FCD462;" d="M201.156,462.314l-7.452,21.077c2.024,0.432,3.986,1.221,5.787,2.368l10.712-14.398L201.156,462.314z
	"/>
<path style="fill:#DC8744;" d="M228.296,489.455l-9.047-9.047l-14.398,10.712c1.147,1.8,1.936,3.763,2.368,5.787L228.296,489.455z"
	/>
<path style="fill:#F6C358;" d="M210.202,471.361L199.49,485.76c1.054,0.672,2.053,1.466,2.974,2.387
	c0.921,0.921,1.715,1.92,2.387,2.974l14.398-10.712L210.202,471.361z"/>
<rect x="277.474" y="390.745" transform="matrix(-0.7071 -0.7071 0.7071 -0.7071 227.889 882.2682)" style="fill:#FCD462;" width="38.385" height="6.385"/>
<path style="fill:#E56353;" d="M311.136,406.615l-27.141-27.141l17.689-17.688c3.793-3.793,30.934,23.347,27.141,27.141
	L311.136,406.615z"/>
</svg>
