<svg width="100" height="100" viewBox="0 0 100 100" fill="none" xmlns="http://www.w3.org/2000/svg">
<g clip-path="url(#clip0)">
<rect width="100" height="100" fill="white"/>
<g clip-path="url(#clip1)">
<path d="M68.1509 2.01187V100H18.5499C11.611 100 5.98581 94.3748 5.98581 87.4359V2.01187C5.98581 0.901031 6.88684 0 7.99768 0H66.139C67.2498 0 68.1509 0.901031 68.1509 2.01187V2.01187Z" fill="#E4E7E7"/>
<path d="M5.98508 2.01187V87.4367C5.98508 94.3741 11.611 100 18.5499 100H24.3269C17.3872 100 11.7613 94.3741 11.7613 87.4367V2.01187C11.7613 0.901031 12.6631 0 13.7739 0H7.99695C6.88611 0 5.98508 0.901031 5.98508 2.01187V2.01187Z" fill="#EFEFEF"/>
<path d="M33.923 82.3227C32.8122 82.3227 31.9112 83.223 31.9112 84.3346V87.4367C31.9112 94.3748 26.286 100 19.3478 100H81.5167C88.4557 100 94.0808 94.3748 94.0808 87.4359V84.3346C94.0808 83.2237 93.1805 82.3227 92.0689 82.3227H33.923Z" fill="#B2B5B7"/>
<path d="M17 26C17 27.1198 18.043 28 19.3713 28H57.6287C58.957 28 60 27.1198 60 26C60 24.8797 58.957 24 57.6287 24H19.3713C18.043 24 17 24.8797 17 26Z" fill="#B2B5B7"/>
<path d="M17 47C17 48.1198 18.043 49 19.3713 49H57.6287C58.957 49 60 48.1198 60 47C60 45.8797 58.957 45 57.6287 45H19.3713C18.043 45 17 45.8797 17 47Z" fill="#B2B5B7"/>
<path d="M17 57C17 58.1198 18.043 59 19.3713 59H57.6287C58.957 59 60 58.1198 60 57C60 55.8797 58.957 55 57.6287 55H19.3713C18.043 55 17 55.8797 17 57Z" fill="#B2B5B7"/>
<path d="M17 68C17 69.1198 17.6549 70 18.489 70H42.511C43.3451 70 44 69.1198 44 68C44 66.8797 43.3451 66 42.511 66H18.489C17.6549 66 17 66.8797 17 68Z" fill="#B2B5B7"/>
<path d="M17 16C17 17.1198 18.043 18 19.3713 18H57.6287C58.957 18 60 17.1198 60 16C60 14.8797 58.957 14 57.6287 14H19.3713C18.043 14 17 14.8797 17 16Z" fill="#B2B5B7"/>
<path d="M17 37C17 38.1198 18.043 39 19.3713 39H57.6287C58.957 39 60 38.1198 60 37C60 35.8797 58.957 35 57.6287 35H19.3713C18.043 35 17 35.8797 17 37Z" fill="#B2B5B7"/>
<path d="M53.1143 64.9748L42.1787 70.4117C40.9579 71.0182 39.625 69.8206 40.0976 68.5418L44.3331 57.0873L53.1143 64.9748Z" fill="#FFCEBF"/>
<path d="M55.4658 64.3036L99.3576 15.4398C100.282 14.4109 100.2 12.8257 99.1683 11.8985L92.1835 5.62458C91.152 4.69868 89.5668 4.78496 88.6422 5.81517L44.7504 54.6777C43.8245 55.7092 43.9082 57.2918 44.941 58.219L51.9244 64.4929C52.9572 65.4188 54.5399 65.3351 55.4658 64.3036V64.3036Z" fill="#FF8376"/>
<path d="M55.4658 64.3038L99.3576 15.44C100.282 14.4111 100.2 12.8259 99.1683 11.8987L95.6759 8.76171L48.4333 61.3562L51.9244 64.4931C52.9572 65.419 54.5399 65.3353 55.4658 64.3038Z" fill="#F16051"/>
<path d="M94.6028 20.7325L99.3572 15.4411C100.282 14.4109 100.198 12.8257 99.1666 11.8998L92.1831 5.62582C91.1503 4.69863 89.5664 4.78491 88.6418 5.81512L83.8874 11.1078L94.6028 20.7325Z" fill="#68B7DF"/>
</g>
</g>
<defs>
<clipPath id="clip0">
<rect width="100" height="100" fill="white"/>
</clipPath>
<clipPath id="clip1">
<rect width="100" height="100" transform="matrix(-1 0 0 1 101 0)" fill="white"/>
</clipPath>
</defs>
</svg>
