<?xml version="1.0" encoding="utf-8"?>
<!-- Generator: Adobe Illustrator 21.0.2, SVG Export Plug-In . SVG Version: 6.00 Build 0)  -->
<svg version="1.1" id="_x32__1_" xmlns="http://www.w3.org/2000/svg" xmlns:xlink="http://www.w3.org/1999/xlink" x="0px" y="0px"
	 viewBox="0 0 60 60" enable-background="new 0 0 60 60" xml:space="preserve">
<g id="Rounded_Rectangle_1">
	<g>
		<path fill="#E5E7E5" d="M49.4,0H10.6c-2,0-3.5,1.6-3.5,3.5v52.9c0,1.9,1.6,3.5,3.5,3.5h38.8c1.9,0,3.5-1.6,3.5-3.5V3.5
			C52.9,1.6,51.4,0,49.4,0z"/>
	</g>
</g>
<g id="Group_2_1_">
	<g id="Ellipse_1">
		<g>
			<circle fill="#FEFEFE" cx="30" cy="23.7" r="17.6"/>
		</g>
	</g>
	<g id="Rounded_Rectangle_1_copy">
		<g>
			<path fill="#B7B7B7" d="M16.8,47.6h26.5c0.5,0,0.9-0.4,0.9-0.9s-0.4-0.9-0.9-0.9H16.8c-0.5,0-0.9,0.4-0.9,0.9
				S16.3,47.6,16.8,47.6z M43.2,51.2H16.8c-0.5,0-0.9,0.4-0.9,0.9s0.4,0.9,0.9,0.9h26.5c0.5,0,0.9-0.4,0.9-0.9S43.7,51.2,43.2,51.2z
				"/>
		</g>
	</g>
	<g id="Forma_1">
		<g>
			<path fill="#46B4A2" d="M40.4,13.2c-0.1-0.1-0.2-0.1-0.3-0.1c-2.4,0-4.5,0.3-6.1,1s-3.3,1.9-5,3.6c-0.7,0.8-1.6,1.7-2.5,2.7
				l-5.3,0.3c-0.1,0-0.3,0.1-0.4,0.2l-3.1,5.4c-0.1,0.2-0.1,0.4,0.1,0.5l0.9,0.9c0.1,0.1,0.2,0.1,0.3,0.1c0.1,0,0.1,0,0.1,0l3.9-1.2
				l3.9,4l-1.2,3.9c0,0.2,0,0.3,0.1,0.4l0.9,0.9c0.1,0.1,0.2,0.1,0.3,0.1c0.1,0,0.2,0,0.2-0.1l5.4-3.1c0.1-0.1,0.2-0.2,0.2-0.4
				l0.3-5.3c1.1-0.9,2-1.7,2.7-2.5c1.7-1.7,2.9-3.4,3.6-5.1c0.7-1.7,1.1-3.7,1.1-6.1C40.6,13.4,40.5,13.3,40.4,13.2z M37,18.6
				c-0.3,0.3-0.6,0.4-1,0.4s-0.7-0.1-1-0.4s-0.4-0.6-0.4-1s0.1-0.7,0.4-1c0.3-0.3,0.6-0.4,1-0.4s0.7,0.1,1,0.4s0.4,0.6,0.4,1
				S37.3,18.3,37,18.6z"/>
		</g>
	</g>
</g>
</svg>
