<?xml version="1.0" encoding="UTF-8" standalone="no"?>
<svg width="40px" height="40px" viewBox="0 0 40 40" version="1.1" xmlns="http://www.w3.org/2000/svg" xmlns:xlink="http://www.w3.org/1999/xlink" xmlns:sketch="http://www.bohemiancoding.com/sketch/ns">
    <!-- Generator: Sketch 3.5.2 (25235) - http://www.bohemiancoding.com/sketch -->
    <title>Ready To Go offer</title>
    <desc>Created with Sketch.</desc>
    <defs></defs>
    <g id="Page-1" stroke="none" stroke-width="1" fill="none" fill-rule="evenodd" sketch:type="MSPage">
        <g id="Ready-To-Go-offer" sketch:type="MSArtboardGroup">
            <g sketch:type="MSLayerGroup">
                <path d="M38,40 L2,40 C0.895,40 0,39.105 0,38 L0,2 C0,0.895 0.895,0 2,0 L38,0 C39.105,0 40,0.895 40,2 L40,38 C40,39.105 39.105,40 38,40" id="Fill-1" fill="#2494F1" sketch:type="MSShapeGroup"></path>
                <path d="M20,19.3832 L4.53,14.0782 L20,8.7722 L35.47,14.0782 L20,19.3832 Z" id="Fill-3" fill="#FF8D00" sketch:type="MSShapeGroup"></path>
                <path d="M20,19.3832 L4.53,14.0782 L4.53,33.2652 L20,38.5702 L20,19.3832 Z" id="Fill-5" fill="#FDC828" sketch:type="MSShapeGroup"></path>
                <path d="M20,19.3832 L35.47,14.0782 L35.47,33.2652 L20,38.5702 L20,19.3832 Z" id="Fill-7" fill="#FDB102" sketch:type="MSShapeGroup"></path>
                <path d="M28.7169,15.8674 C28.8869,15.8014 28.9729,15.6074 28.9059,15.4364 L28.1819,13.5774 C28.1309,13.4464 28.0049,13.3664 27.8709,13.3664 C27.8319,13.3664 27.7909,13.3734 27.7519,13.3884 L26.9309,13.7084 C26.6489,13.3184 26.3189,12.9754 25.9509,12.6834 L26.3049,11.8784 C26.3779,11.7114 26.3019,11.5134 26.1339,11.4404 L24.3079,10.6374 C24.2639,10.6184 24.2189,10.6094 24.1749,10.6094 C24.0469,10.6094 23.9239,10.6844 23.8689,10.8084 L23.5159,11.6134 C23.2469,11.5704 22.9749,11.5494 22.6999,11.5494 C22.4999,11.5494 22.2989,11.5604 22.0979,11.5844 L21.7779,10.7634 C21.7269,10.6324 21.6009,10.5524 21.4679,10.5514 C21.4279,10.5514 21.3869,10.5594 21.3479,10.5744 L19.4889,11.2984 C19.3179,11.3644 19.2329,11.5584 19.2999,11.7284 L19.6189,12.5494 C19.2299,12.8314 18.8869,13.1614 18.5949,13.5294 L17.7899,13.1754 C17.7459,13.1564 17.7009,13.1474 17.6569,13.1474 C17.5289,13.1474 17.4059,13.2224 17.3509,13.3464 L16.5489,15.1734 C16.4749,15.3404 16.5519,15.5374 16.7189,15.6114 L17.5249,15.9654 C17.4509,16.4284 17.4399,16.9044 17.4949,17.3824 L16.6749,17.7024 C16.5039,17.7684 16.4189,17.9624 16.4859,18.1324 L16.5209,18.2234 L19.9029,19.3834 L22.3129,18.5564 C21.7339,18.4304 21.2229,18.0424 20.9919,17.4484 C20.6249,16.5074 21.0909,15.4474 22.0319,15.0804 C22.2499,14.9954 22.4749,14.9554 22.6949,14.9554 C23.4269,14.9554 24.1179,15.3984 24.3999,16.1214 C24.6489,16.7604 24.5069,17.4494 24.0999,17.9434 L27.9179,16.6344 C27.9129,16.4854 27.9139,16.3364 27.8969,16.1864 L28.7169,15.8674 Z" id="Fill-9" fill="#0D479F" sketch:type="MSShapeGroup"></path>
                <path d="M23.6203,5.8315 C23.4953,5.8315 23.3713,5.8655 23.2623,5.9285 C23.0973,6.0245 22.9793,6.1785 22.9303,6.3635 C22.8813,6.5475 22.9073,6.7405 23.0033,6.9055 C23.1313,7.1245 23.3683,7.2605 23.6223,7.2605 C23.7473,7.2605 23.8713,7.2275 23.9803,7.1645 C24.3213,6.9655 24.4373,6.5275 24.2393,6.1865 C24.1113,5.9675 23.8743,5.8315 23.6203,5.8315 L23.6203,5.8315 Z M23.2483,10.6235 L23.1533,10.6055 L22.0213,10.3055 C21.8783,10.2685 21.7593,10.1775 21.6843,10.0485 C21.6093,9.9205 21.5883,9.7715 21.6273,9.6285 L21.6913,9.3855 C21.5883,9.3155 21.4903,9.2405 21.3953,9.1595 L21.1783,9.2865 C21.0933,9.3355 20.9973,9.3615 20.9003,9.3615 C20.7023,9.3615 20.5193,9.2555 20.4203,9.0855 L19.8313,8.0725 C19.6783,7.8095 19.7673,7.4695 20.0313,7.3155 L20.2493,7.1885 C20.2263,7.0665 20.2093,6.9435 20.1993,6.8205 L19.9563,6.7565 C19.6603,6.6775 19.4843,6.3735 19.5623,6.0775 L19.8623,4.9455 C19.9253,4.7035 20.1453,4.5335 20.3973,4.5335 L20.4443,4.5335 L20.5393,4.5525 L20.7823,4.6165 C20.8523,4.5135 20.9273,4.4155 21.0083,4.3205 L20.8813,4.1025 C20.7283,3.8375 20.8183,3.4975 21.0823,3.3455 L22.0943,2.7555 C22.1793,2.7065 22.2753,2.6815 22.3723,2.6815 C22.5693,2.6815 22.7533,2.7865 22.8523,2.9555 L22.9793,3.1735 C23.1013,3.1515 23.2243,3.1345 23.3473,3.1245 L23.4113,2.8815 C23.4763,2.6385 23.6973,2.4685 23.9483,2.4685 L23.9943,2.4685 L24.0883,2.4865 L25.2213,2.7865 C25.5173,2.8655 25.6943,3.1695 25.6153,3.4645 L25.5513,3.7065 C25.6543,3.7775 25.7533,3.8525 25.8473,3.9325 L26.0643,3.8065 C26.1493,3.7575 26.2453,3.7315 26.3433,3.7315 C26.5393,3.7315 26.7233,3.8365 26.8223,4.0065 L27.4113,5.0195 C27.4853,5.1475 27.5053,5.2965 27.4673,5.4395 C27.4303,5.5825 27.3383,5.7025 27.2113,5.7775 L26.9933,5.9035 C27.0163,6.0255 27.0333,6.1485 27.0433,6.2725 L27.2873,6.3365 C27.4283,6.3735 27.5483,6.4655 27.6233,6.5935 C27.6983,6.7215 27.7183,6.8715 27.6803,7.0145 L27.3813,8.1465 C27.3163,8.3895 27.0963,8.5595 26.8443,8.5595 L26.7973,8.5595 L26.7033,8.5405 L26.4603,8.4765 C26.3903,8.5785 26.3153,8.6775 26.2353,8.7715 L26.3613,8.9895 C26.4353,9.1165 26.4553,9.2665 26.4173,9.4105 C26.3793,9.5535 26.2873,9.6735 26.1593,9.7475 L25.1483,10.3365 C25.0633,10.3855 24.9673,10.4115 24.8703,10.4115 C24.6723,10.4115 24.4893,10.3055 24.3903,10.1355 L24.2643,9.9185 C24.1423,9.9415 24.0183,9.9585 23.8953,9.9685 L23.8303,10.2115 C23.7673,10.4535 23.5473,10.6235 23.2953,10.6235 L23.2483,10.6235 Z" id="Fill-11" fill="#0D479F" sketch:type="MSShapeGroup"></path>
                <path d="M12.7348,7.2524 C12.5528,7.2524 12.3738,7.2864 12.2018,7.3534 C11.4468,7.6474 11.0718,8.5004 11.3658,9.2554 C11.5878,9.8244 12.1248,10.1924 12.7348,10.1924 C12.9178,10.1924 13.0968,10.1584 13.2678,10.0914 C14.0238,9.7974 14.3988,8.9444 14.1048,8.1894 C13.8828,7.6204 13.3458,7.2524 12.7348,7.2524 M13.9628,15.3144 C13.6798,15.3144 13.4208,15.1374 13.3178,14.8744 L13.0968,14.3054 C12.9738,14.3134 12.8518,14.3174 12.7298,14.3174 C12.5318,14.3174 12.3328,14.3064 12.1358,14.2854 L11.8908,14.8434 C11.7798,15.0944 11.5308,15.2564 11.2568,15.2564 C11.1608,15.2564 11.0678,15.2374 10.9798,15.1984 L9.1528,14.3954 C8.9838,14.3214 8.8538,14.1854 8.7868,14.0134 C8.7198,13.8414 8.7228,13.6534 8.7978,13.4844 L9.0428,12.9264 C8.8018,12.7144 8.5798,12.4824 8.3778,12.2314 L7.8098,12.4534 C7.7298,12.4844 7.6458,12.5004 7.5598,12.5004 C7.2758,12.5004 7.0158,12.3234 6.9138,12.0594 L6.1898,10.2004 C6.1228,10.0294 6.1278,9.8414 6.2018,9.6714 C6.2768,9.5024 6.4118,9.3724 6.5838,9.3054 L7.1518,9.0834 C7.1318,8.7634 7.1378,8.4414 7.1728,8.1234 L6.6138,7.8774 C6.4458,7.8034 6.3158,7.6674 6.2488,7.4954 C6.1808,7.3234 6.1848,7.1354 6.2588,6.9664 L7.0618,5.1404 C7.1718,4.8894 7.4208,4.7264 7.6958,4.7264 C7.7928,4.7264 7.8858,4.7464 7.9738,4.7854 L8.5318,5.0304 C8.7418,4.7904 8.9738,4.5684 9.2258,4.3654 L9.0038,3.7974 C8.9378,3.6254 8.9418,3.4374 9.0158,3.2684 C9.0908,3.0984 9.2268,2.9684 9.3988,2.9014 L11.2568,2.1774 C11.3368,2.1464 11.4208,2.1304 11.5068,2.1304 C11.7908,2.1304 12.0498,2.3074 12.1518,2.5704 L12.3738,3.1394 C12.4968,3.1314 12.6188,3.1284 12.7398,3.1284 C12.9378,3.1284 13.1378,3.1384 13.3348,3.1604 L13.5798,2.6014 C13.6898,2.3504 13.9388,2.1884 14.2138,2.1884 C14.3098,2.1884 14.4028,2.2084 14.4908,2.2464 L16.3178,3.0494 C16.6668,3.2024 16.8268,3.6114 16.6728,3.9604 L16.4278,4.5194 C16.6688,4.7304 16.8908,4.9624 17.0918,5.2134 L17.6608,4.9914 C17.7408,4.9614 17.8248,4.9454 17.9108,4.9454 C18.1938,4.9454 18.4538,5.1214 18.5558,5.3854 L19.2798,7.2444 C19.3468,7.4164 19.3428,7.6044 19.2688,7.7734 C19.1938,7.9424 19.0588,8.0724 18.8868,8.1394 L18.3178,8.3614 C18.3388,8.6824 18.3328,9.0044 18.2978,9.3224 L18.8558,9.5674 C19.0248,9.6414 19.1548,9.7774 19.2218,9.9504 C19.2898,10.1224 19.2848,10.3104 19.2108,10.4794 L18.4088,12.3054 C18.2978,12.5564 18.0488,12.7184 17.7738,12.7184 C17.6778,12.7184 17.5838,12.6994 17.4968,12.6604 L16.9388,12.4144 C16.7278,12.6554 16.4948,12.8774 16.2438,13.0794 L16.4668,13.6484 C16.6038,14.0044 16.4268,14.4054 16.0728,14.5434 L14.2138,15.2674 C14.1328,15.2984 14.0488,15.3144 13.9628,15.3144" id="Fill-13" fill="#0D479F" sketch:type="MSShapeGroup"></path>
            </g>
        </g>
    </g>
</svg>