<?xml version="1.0" encoding="utf-8"?>
<!-- Generator: Adobe Illustrator 15.0.2, SVG Export Plug-In . SVG Version: 6.00 Build 0)  -->
<!DOCTYPE svg PUBLIC "-//W3C//DTD SVG 1.1//EN" "http://www.w3.org/Graphics/SVG/1.1/DTD/svg11.dtd">
<svg version="1.1" id="Layer_1" xmlns="http://www.w3.org/2000/svg" xmlns:xlink="http://www.w3.org/1999/xlink" x="0px" y="0px"
	 width="100px" height="100px" viewBox="0 0 100 100" enable-background="new 0 0 100 100" xml:space="preserve">
<g>
	<linearGradient id="SVGID_1_" gradientUnits="userSpaceOnUse" x1="47.6597" y1="1.0166" x2="50.9244" y2="55.5775">
		<stop  offset="0" style="stop-color:#F26522"/>
		<stop  offset="0.2569" style="stop-color:#A7782F;stop-opacity:0.8125"/>
		<stop  offset="0.5216" style="stop-color:#60893B;stop-opacity:0.6193"/>
		<stop  offset="0.7427" style="stop-color:#2C9644;stop-opacity:0.4578"/>
		<stop  offset="0.9085" style="stop-color:#0C9E49;stop-opacity:0.3368"/>
		<stop  offset="1" style="stop-color:#00A14B;stop-opacity:0.27"/>
	</linearGradient>
	<path opacity="0.66" fill="url(#SVGID_1_)" d="M49.135,0.83c0,0,18.93,9.649,15.85,22.183
		c-3.082,12.533-14.801,23.21-15.241,27.222c0.44-3.924-16.898-17.913-17.339-27.83C31.965,12.489,44.733,4.047,49.135,0.83z"/>
	
		<linearGradient id="SVGID_2_" gradientUnits="userSpaceOnUse" x1="-87.791" y1="-808.3491" x2="-84.5262" y2="-753.7866" gradientTransform="matrix(0.9677 0.252 -0.252 0.9677 -58.6181 806.443)">
		<stop  offset="0" style="stop-color:#F26522"/>
		<stop  offset="0.2569" style="stop-color:#A7782F;stop-opacity:0.8125"/>
		<stop  offset="0.5216" style="stop-color:#60893B;stop-opacity:0.6193"/>
		<stop  offset="0.7427" style="stop-color:#2C9644;stop-opacity:0.4578"/>
		<stop  offset="0.9085" style="stop-color:#0C9E49;stop-opacity:0.3368"/>
		<stop  offset="1" style="stop-color:#00A14B;stop-opacity:0.27"/>
	</linearGradient>
	<path opacity="0.66" fill="url(#SVGID_2_)" d="M61.606,2.271c0,0,15.89,14.109,9.747,25.461
		c-6.14,11.352-20.172,18.731-21.609,22.503c1.414-3.685-11.839-21.594-9.766-31.301C42.052,9.227,56.536,4.275,61.606,2.271z"/>
	
		<linearGradient id="SVGID_3_" gradientUnits="userSpaceOnUse" x1="-423.3628" y1="-1558.375" x2="-420.0982" y2="-1503.8162" gradientTransform="matrix(0.873 0.4878 -0.4878 0.873 -318.6472 1573.2301)">
		<stop  offset="0" style="stop-color:#F26522"/>
		<stop  offset="0.2569" style="stop-color:#A7782F;stop-opacity:0.8125"/>
		<stop  offset="0.5216" style="stop-color:#60893B;stop-opacity:0.6193"/>
		<stop  offset="0.7427" style="stop-color:#2C9644;stop-opacity:0.4578"/>
		<stop  offset="0.9085" style="stop-color:#0C9E49;stop-opacity:0.3368"/>
		<stop  offset="1" style="stop-color:#00A14B;stop-opacity:0.27"/>
	</linearGradient>
	<path opacity="0.66" fill="url(#SVGID_3_)" d="M73.312,6.809c0,0,11.82,17.658,3.016,27.096
		c-8.803,9.438-24.242,13.043-26.583,16.331c2.297-3.21-6.016-23.879-1.562-32.751C52.636,8.612,67.899,7.47,73.312,6.809z"/>
	
		<linearGradient id="SVGID_4_" gradientUnits="userSpaceOnUse" x1="-936.7114" y1="-2198.3955" x2="-933.4468" y2="-2143.8362" gradientTransform="matrix(0.7219 0.692 -0.692 0.7219 -762.7793 2248.4897)">
		<stop  offset="0" style="stop-color:#0ECC44"/>
		<stop  offset="0.6385" style="stop-color:#04AD49;stop-opacity:0.4892"/>
		<stop  offset="1" style="stop-color:#00A14B;stop-opacity:0.2"/>
	</linearGradient>
	<path opacity="0.66" fill="url(#SVGID_4_)" d="M83.493,14.15c0,0,6.989,20.067-3.909,26.981
		c-10.896,6.914-26.746,6.511-29.84,9.104c3.031-2.527,0.197-24.625,6.741-32.088C63.031,10.684,78.089,13.426,83.493,14.15z"/>
	
		<linearGradient id="SVGID_5_" gradientUnits="userSpaceOnUse" x1="-1594.8691" y1="-2689.1147" x2="-1591.6046" y2="-2634.5564" gradientTransform="matrix(0.5242 0.8516 -0.8516 0.5242 -1363.4554 2790.4871)">
		<stop  offset="0" style="stop-color:#0ECC44"/>
		<stop  offset="0.6385" style="stop-color:#04AD49;stop-opacity:0.4892"/>
		<stop  offset="1" style="stop-color:#00A14B;stop-opacity:0.2"/>
	</linearGradient>
	<path opacity="0.66" fill="url(#SVGID_5_)" d="M91.497,23.821c0,0,1.708,21.18-10.582,25.125
		c-12.289,3.945-27.525-0.438-31.171,1.29c3.57-1.682,6.396-23.78,14.611-29.353S86.451,21.757,91.497,23.821z"/>
	
		<linearGradient id="SVGID_6_" gradientUnits="userSpaceOnUse" x1="-2354.9653" y1="-2998.2031" x2="-2351.7004" y2="-2943.6416" gradientTransform="matrix(0.2926 0.9562 -0.9562 0.2926 -2081.6216 3162.9326)">
		<stop  offset="0" style="stop-color:#0ECC44"/>
		<stop  offset="0.6385" style="stop-color:#04AD49;stop-opacity:0.4892"/>
		<stop  offset="1" style="stop-color:#00A14B;stop-opacity:0.2"/>
	</linearGradient>
	<path opacity="0.66" fill="url(#SVGID_6_)" d="M96.808,35.196c0,0-3.688,20.927-16.574,21.647
		c-12.886,0.721-26.525-7.361-30.489-6.608c3.878-0.729,12.183-21.4,21.537-24.723S92.444,31.928,96.808,35.196z"/>
	
		<linearGradient id="SVGID_7_" gradientUnits="userSpaceOnUse" x1="-3169.147" y1="-3105.4966" x2="-3165.8823" y2="-3050.9368" gradientTransform="matrix(0.0422 0.9991 -0.9991 0.0422 -2870.1333 3343.4224)">
		<stop  offset="0" style="stop-color:#0ECC44"/>
		<stop  offset="0.6385" style="stop-color:#04AD49;stop-opacity:0.4892"/>
		<stop  offset="1" style="stop-color:#00A14B;stop-opacity:0.2"/>
	</linearGradient>
	<path opacity="0.66" fill="url(#SVGID_7_)" d="M99.078,47.543c0,0-8.843,19.321-21.495,16.77
		c-12.65-2.55-23.813-13.809-27.839-14.078c3.937,0.273,17.182-17.639,27.071-18.498C86.707,30.88,95.678,43.281,99.078,47.543z"/>
	
		<linearGradient id="SVGID_8_" gradientUnits="userSpaceOnUse" x1="-3983.7168" y1="-3004.5132" x2="-3980.4521" y2="-2949.9539" gradientTransform="matrix(-0.211 0.9775 -0.9775 -0.211 -3679.1819 3318.7129)">
		<stop  offset="0" style="stop-color:#0ECC44"/>
		<stop  offset="0.6385" style="stop-color:#04AD49;stop-opacity:0.4892"/>
		<stop  offset="1" style="stop-color:#00A14B;stop-opacity:0.2"/>
	</linearGradient>
	<path opacity="0.66" fill="url(#SVGID_8_)" d="M98.165,60.063c0,0-13.428,16.469-25.028,10.813
		C61.535,65.22,53.572,51.51,49.744,50.235c3.739,1.257,21.073-12.739,30.858-11.077C90.391,40.82,95.947,55.082,98.165,60.063z"/>
	
		<linearGradient id="SVGID_9_" gradientUnits="userSpaceOnUse" x1="-4746.8398" y1="-2701.0503" x2="-4743.5752" y2="-2646.4927" gradientTransform="matrix(-0.4505 0.8928 -0.8928 -0.4505 -4455.3257 3091.7026)">
		<stop  offset="0" style="stop-color:#21409A"/>
		<stop  offset="0.0148" style="stop-color:#204299;stop-opacity:0.9881"/>
		<stop  offset="0.4684" style="stop-color:#0F756F;stop-opacity:0.6253"/>
		<stop  offset="0.8108" style="stop-color:#049555;stop-opacity:0.3514"/>
		<stop  offset="1" style="stop-color:#00A14B;stop-opacity:0.2"/>
	</linearGradient>
	<path opacity="0.66" fill="url(#SVGID_9_)" d="M94.124,71.949c0,0-17.144,12.554-26.944,4.155
		c-9.801-8.396-14.052-23.67-17.436-25.869c3.303,2.158,23.604-7.017,32.655-2.942C91.452,51.366,93.235,66.57,94.124,71.949z"/>
	
		<linearGradient id="SVGID_10_" gradientUnits="userSpaceOnUse" x1="-5408.2432" y1="-2215.3862" x2="-5404.9785" y2="-2160.8279" gradientTransform="matrix(-0.661 0.7504 -0.7504 -0.661 -5149.2202 2675.1785)">
		<stop  offset="0" style="stop-color:#21409A"/>
		<stop  offset="0.0148" style="stop-color:#204299;stop-opacity:0.9881"/>
		<stop  offset="0.4684" style="stop-color:#0F756F;stop-opacity:0.6253"/>
		<stop  offset="0.8108" style="stop-color:#049555;stop-opacity:0.3514"/>
		<stop  offset="1" style="stop-color:#00A14B;stop-opacity:0.2"/>
	</linearGradient>
	<path opacity="0.66" fill="url(#SVGID_10_)" d="M87.22,82.433c0,0-19.755,7.828-27.123-2.768
		c-7.368-10.597-7.634-26.449-10.353-29.43c2.651,2.922,24.609-0.842,32.344,5.383C89.82,61.842,87.716,77.004,87.22,82.433z"/>
	
		<linearGradient id="SVGID_11_" gradientUnits="userSpaceOnUse" x1="-5926.2212" y1="-1578.623" x2="-5922.957" y2="-1524.068" gradientTransform="matrix(-0.8288 0.5596 -0.5596 -0.8288 -5716.0381 2097.8074)">
		<stop  offset="0" style="stop-color:#FFDE17"/>
		<stop  offset="0.2834" style="stop-color:#A8C929;stop-opacity:0.7733"/>
		<stop  offset="0.5409" style="stop-color:#60B837;stop-opacity:0.5673"/>
		<stop  offset="0.7532" style="stop-color:#2CAC42;stop-opacity:0.3975"/>
		<stop  offset="0.9122" style="stop-color:#0CA449;stop-opacity:0.2702"/>
		<stop  offset="1" style="stop-color:#00A14B;stop-opacity:0.2"/>
	</linearGradient>
	<path opacity="0.66" fill="url(#SVGID_11_)" d="M77.894,90.837c0,0-21.088,2.598-25.548-9.514
		c-4.459-12.111-0.722-27.519-2.602-31.088c1.829,3.496,24.027,5.387,29.94,13.36C85.601,71.567,79.742,85.709,77.894,90.837z"/>
	
		<linearGradient id="SVGID_12_" gradientUnits="userSpaceOnUse" x1="-6267.2813" y1="-831.189" x2="-6264.0166" y2="-776.6285" gradientTransform="matrix(-0.943 0.3327 -0.3327 -0.943 -6118.5 1397.269)">
		<stop  offset="0" style="stop-color:#FFDE17"/>
		<stop  offset="0.2834" style="stop-color:#A8C929;stop-opacity:0.7733"/>
		<stop  offset="0.5409" style="stop-color:#60B837;stop-opacity:0.5673"/>
		<stop  offset="0.7532" style="stop-color:#2CAC42;stop-opacity:0.3975"/>
		<stop  offset="0.9122" style="stop-color:#0CA449;stop-opacity:0.2702"/>
		<stop  offset="1" style="stop-color:#00A14B;stop-opacity:0.2"/>
	</linearGradient>
	<path opacity="0.66" fill="url(#SVGID_12_)" d="M66.752,96.623c0,0-21.063-2.804-22.326-15.646
		c-1.263-12.845,6.237-26.813,5.318-30.741c0.889,3.844,21.894,11.268,25.607,20.475C79.066,79.915,69.835,92.124,66.752,96.623z"/>
	
		<linearGradient id="SVGID_13_" gradientUnits="userSpaceOnUse" x1="-6408.7837" y1="-22.4482" x2="-6405.519" y2="32.1127" gradientTransform="matrix(-0.9964 0.0843 -0.0843 -0.9964 -6331.6367 616.9962)">
		<stop  offset="0" style="stop-color:#FFDE17"/>
		<stop  offset="0.2834" style="stop-color:#A8C929;stop-opacity:0.7733"/>
		<stop  offset="0.5409" style="stop-color:#60B837;stop-opacity:0.5673"/>
		<stop  offset="0.7532" style="stop-color:#2CAC42;stop-opacity:0.3975"/>
		<stop  offset="0.9122" style="stop-color:#0CA449;stop-opacity:0.2702"/>
		<stop  offset="1" style="stop-color:#00A14B;stop-opacity:0.2"/>
	</linearGradient>
	<path opacity="0.66" fill="url(#SVGID_13_)" d="M54.513,99.412c0,0-19.677-8.02-17.663-20.769
		c2.015-12.747,12.792-24.375,12.894-28.408c-0.108,3.944,18.347,16.422,19.62,26.268C70.64,86.347,58.629,95.835,54.513,99.412z"/>
	
		<linearGradient id="SVGID_14_" gradientUnits="userSpaceOnUse" x1="-6341.4629" y1="795.4512" x2="-6338.1982" y2="850.0089" gradientTransform="matrix(-0.9855 -0.1696 0.1696 -0.9855 -6340.9692 -192.5029)">
		<stop  offset="0" style="stop-color:#FFDE17"/>
		<stop  offset="0.2834" style="stop-color:#A8C929;stop-opacity:0.7733"/>
		<stop  offset="0.5409" style="stop-color:#60B837;stop-opacity:0.5673"/>
		<stop  offset="0.7532" style="stop-color:#2CAC42;stop-opacity:0.3975"/>
		<stop  offset="0.9122" style="stop-color:#0CA449;stop-opacity:0.2702"/>
		<stop  offset="1" style="stop-color:#00A14B;stop-opacity:0.2"/>
	</linearGradient>
	<path opacity="0.66" fill="url(#SVGID_14_)" d="M41.966,99.025c0,0-17.021-12.719-11.859-24.548s18.523-20.364,19.638-24.242
		c-1.1,3.789,13.615,20.518,12.368,30.364C60.864,90.448,46.849,96.604,41.966,99.025z"/>
	
		<linearGradient id="SVGID_15_" gradientUnits="userSpaceOnUse" x1="-6070.793" y1="1569.9453" x2="-6067.5283" y2="1624.502" gradientTransform="matrix(-0.911 -0.4125 0.4125 -0.911 -6146.7539 -978.0516)">
		<stop  offset="0" style="stop-color:#FFDE17"/>
		<stop  offset="0.2834" style="stop-color:#A8C929;stop-opacity:0.7733"/>
		<stop  offset="0.5409" style="stop-color:#60B837;stop-opacity:0.5673"/>
		<stop  offset="0.7532" style="stop-color:#2CAC42;stop-opacity:0.3975"/>
		<stop  offset="0.9122" style="stop-color:#0CA449;stop-opacity:0.2702"/>
		<stop  offset="1" style="stop-color:#00A14B;stop-opacity:0.2"/>
	</linearGradient>
	<path opacity="0.66" fill="url(#SVGID_15_)" d="M29.92,95.49c0,0-13.266-16.598-5.289-26.744s23.058-15.04,25.113-18.511
		c-2.02,3.39,8.004,23.285,4.316,32.501C50.37,91.952,35.257,94.377,29.92,95.49z"/>
	
		<linearGradient id="SVGID_16_" gradientUnits="userSpaceOnUse" x1="-5613.5327" y1="2252.4736" x2="-5610.2681" y2="2307.0347" gradientTransform="matrix(-0.7776 -0.6287 0.6287 -0.7776 -5760.793 -1687.8871)">
		<stop  offset="0" style="stop-color:#21409A"/>
		<stop  offset="0.0148" style="stop-color:#204299;stop-opacity:0.9881"/>
		<stop  offset="0.4684" style="stop-color:#0F756F;stop-opacity:0.6253"/>
		<stop  offset="0.8108" style="stop-color:#049555;stop-opacity:0.3514"/>
		<stop  offset="1" style="stop-color:#00A14B;stop-opacity:0.2"/>
	</linearGradient>
	<path opacity="0.66" fill="url(#SVGID_16_)" d="M19.154,89.034c0,0-8.654-19.406,1.622-27.214
		c10.277-7.809,26.104-8.743,28.969-11.585c-2.809,2.771,1.878,24.552-4.015,32.541C39.837,90.765,24.601,89.301,19.154,89.034z"/>
	
		<linearGradient id="SVGID_17_" gradientUnits="userSpaceOnUse" x1="-4999.4248" y1="2796.4824" x2="-4996.1602" y2="2851.04" gradientTransform="matrix(-0.5941 -0.8044 0.8044 -0.5941 -5208.2573 -2278.9988)">
		<stop  offset="0" style="stop-color:#21409A"/>
		<stop  offset="0.0148" style="stop-color:#204299;stop-opacity:0.9881"/>
		<stop  offset="0.4684" style="stop-color:#0F756F;stop-opacity:0.6253"/>
		<stop  offset="0.8108" style="stop-color:#049555;stop-opacity:0.3514"/>
		<stop  offset="1" style="stop-color:#00A14B;stop-opacity:0.2"/>
	</linearGradient>
	<path opacity="0.66" fill="url(#SVGID_17_)" d="M10.364,80.072c0,0-3.484-20.961,8.428-25.928
		c11.912-4.965,27.463-1.882,30.953-3.909c-3.417,1.975-4.37,24.232-12.087,30.478C29.941,86.958,15.566,81.703,10.364,80.072z"/>
	
		<linearGradient id="SVGID_18_" gradientUnits="userSpaceOnUse" x1="-4267.5967" y1="3167.9941" x2="-4264.332" y2="3222.5518" gradientTransform="matrix(-0.3722 -0.9282 0.9282 -0.3722 -4524.0967 -2711.5696)">
		<stop  offset="0" style="stop-color:#21409A"/>
		<stop  offset="0.0148" style="stop-color:#204299;stop-opacity:0.9881"/>
		<stop  offset="0.4684" style="stop-color:#0F756F;stop-opacity:0.6253"/>
		<stop  offset="0.8108" style="stop-color:#049555;stop-opacity:0.3514"/>
		<stop  offset="1" style="stop-color:#00A14B;stop-opacity:0.2"/>
	</linearGradient>
	<path opacity="0.66" fill="url(#SVGID_18_)" d="M4.114,69.186c0,0,1.911-21.163,14.689-22.968
		c12.781-1.803,27.053,5.101,30.94,4.018c-3.805,1.05-10.336,22.349-19.378,26.448C21.326,80.783,8.738,72.074,4.114,69.186z"/>
	
		<linearGradient id="SVGID_19_" gradientUnits="userSpaceOnUse" x1="-3464.8145" y1="3343.8213" x2="-3461.5498" y2="3398.3823" gradientTransform="matrix(-0.1262 -0.992 0.992 -0.1262 -3753.1487 -2956.5916)">
		<stop  offset="0" style="stop-color:#21409A"/>
		<stop  offset="0.0148" style="stop-color:#204299;stop-opacity:0.9881"/>
		<stop  offset="0.4684" style="stop-color:#0F756F;stop-opacity:0.6253"/>
		<stop  offset="0.8108" style="stop-color:#049555;stop-opacity:0.3514"/>
		<stop  offset="1" style="stop-color:#00A14B;stop-opacity:0.2"/>
	</linearGradient>
	<path opacity="0.66" fill="url(#SVGID_19_)" d="M0.811,57.074c0,0,7.183-19.999,20.004-18.524
		c12.822,1.476,24.894,11.754,28.929,11.685c-3.947,0.057-15.636,19.022-25.418,20.712C14.544,72.634,4.558,61.035,0.811,57.074z"/>
	
		<linearGradient id="SVGID_20_" gradientUnits="userSpaceOnUse" x1="-2645.436" y1="3311.9131" x2="-2642.1714" y2="3366.4741" gradientTransform="matrix(0.1278 -0.9918 0.9918 0.1278 -2946.0046 -3000.9963)">
		<stop  offset="0" style="stop-color:#21409A"/>
		<stop  offset="0.0148" style="stop-color:#204299;stop-opacity:0.9881"/>
		<stop  offset="0.4684" style="stop-color:#0F756F;stop-opacity:0.6253"/>
		<stop  offset="0.8108" style="stop-color:#049555;stop-opacity:0.3514"/>
		<stop  offset="1" style="stop-color:#00A14B;stop-opacity:0.2"/>
	</linearGradient>
	<path opacity="0.66" fill="url(#SVGID_20_)" d="M0.667,44.521c0,0,11.991-17.542,24.026-12.884
		c12.036,4.66,21.128,17.647,25.051,18.598c-3.834-0.939-19.926,14.469-29.818,13.637C10.035,63.042,3.295,49.298,0.667,44.521z"/>
	
		<linearGradient id="SVGID_21_" gradientUnits="userSpaceOnUse" x1="-1859.3687" y1="3073.1045" x2="-1856.1041" y2="3127.6621" gradientTransform="matrix(0.3737 -0.9276 0.9276 0.3737 -2152.4539 -2839.3936)">
		<stop  offset="0" style="stop-color:#21409A"/>
		<stop  offset="0.0148" style="stop-color:#204299;stop-opacity:0.9881"/>
		<stop  offset="0.4684" style="stop-color:#0F756F;stop-opacity:0.6253"/>
		<stop  offset="0.8108" style="stop-color:#049555;stop-opacity:0.3514"/>
		<stop  offset="1" style="stop-color:#00A14B;stop-opacity:0.2"/>
	</linearGradient>
	<path opacity="0.66" fill="url(#SVGID_21_)" d="M3.691,32.338c0,0,16.024-13.955,26.498-6.414
		c10.474,7.542,15.999,22.403,19.556,24.311c-3.474-1.876-22.929,8.979-32.292,5.683C8.089,52.62,5.029,37.623,3.691,32.338z"/>
	
		<linearGradient id="SVGID_22_" gradientUnits="userSpaceOnUse" x1="-1158.1411" y1="2645.3271" x2="-1154.8763" y2="2699.8892" gradientTransform="matrix(0.5954 -0.8034 0.8034 0.5954 -1426.7386 -2482.8745)">
		<stop  offset="0" style="stop-color:#21409A"/>
		<stop  offset="0.0148" style="stop-color:#204299;stop-opacity:0.9881"/>
		<stop  offset="0.4684" style="stop-color:#0F756F;stop-opacity:0.6253"/>
		<stop  offset="0.8108" style="stop-color:#049555;stop-opacity:0.3514"/>
		<stop  offset="1" style="stop-color:#00A14B;stop-opacity:0.2"/>
	</linearGradient>
	<path opacity="0.66" fill="url(#SVGID_22_)" d="M9.688,21.309c0,0,19.023-9.465,27.259,0.472
		c8.233,9.938,9.835,25.711,12.797,28.454c-2.889-2.69-24.452,2.911-32.682-2.639C8.833,42.046,9.652,26.761,9.688,21.309z"/>
	
		<linearGradient id="SVGID_23_" gradientUnits="userSpaceOnUse" x1="-589.4448" y1="2054.9658" x2="-586.18" y2="2109.5278" gradientTransform="matrix(0.7786 -0.6275 0.6275 0.7786 -813.3112 -1956.6538)">
		<stop  offset="0" style="stop-color:#F26522"/>
		<stop  offset="0.2569" style="stop-color:#A7782F;stop-opacity:0.8125"/>
		<stop  offset="0.5216" style="stop-color:#60893B;stop-opacity:0.6193"/>
		<stop  offset="0.7427" style="stop-color:#2C9644;stop-opacity:0.4578"/>
		<stop  offset="0.9085" style="stop-color:#0C9E49;stop-opacity:0.3368"/>
		<stop  offset="1" style="stop-color:#00A14B;stop-opacity:0.27"/>
	</linearGradient>
	<path opacity="0.66" fill="url(#SVGID_23_)" d="M18.271,12.147c0,0,20.796-4.365,26.259,7.327
		c5.465,11.692,3.04,27.361,5.214,30.761c-2.12-3.332-24.397-3.345-30.962-10.791C12.217,32,16.861,17.415,18.271,12.147z"/>
	
		<linearGradient id="SVGID_24_" gradientUnits="userSpaceOnUse" x1="-186.6055" y1="1339.5313" x2="-183.3406" y2="1394.0944" gradientTransform="matrix(0.9116 -0.411 0.411 0.9116 -352.8217 -1291.5902)">
		<stop  offset="0" style="stop-color:#F26522"/>
		<stop  offset="0.2569" style="stop-color:#A7782F;stop-opacity:0.7945"/>
		<stop  offset="0.5216" style="stop-color:#60893B;stop-opacity:0.5828"/>
		<stop  offset="0.7427" style="stop-color:#2C9644;stop-opacity:0.4058"/>
		<stop  offset="0.9085" style="stop-color:#0C9E49;stop-opacity:0.2732"/>
		<stop  offset="1" style="stop-color:#00A14B;stop-opacity:0.2"/>
	</linearGradient>
	<path opacity="0.66" fill="url(#SVGID_24_)" d="M28.885,5.445c0,0,21.225,1.017,23.566,13.708
		c2.341,12.692-3.955,27.243-2.707,31.082c-1.211-3.757-22.767-9.386-27.244-18.246C18.023,23.13,26.194,10.188,28.885,5.445z"/>
	
		<linearGradient id="SVGID_25_" gradientUnits="userSpaceOnUse" x1="22.2368" y1="545.2813" x2="25.5015" y2="599.8411" gradientTransform="matrix(0.9858 -0.168 0.168 0.9858 -74.1067 -531.7374)">
		<stop  offset="0" style="stop-color:#F26522"/>
		<stop  offset="0.2569" style="stop-color:#A7782F;stop-opacity:0.8125"/>
		<stop  offset="0.5216" style="stop-color:#60893B;stop-opacity:0.6193"/>
		<stop  offset="0.7427" style="stop-color:#2C9644;stop-opacity:0.4578"/>
		<stop  offset="0.9085" style="stop-color:#0C9E49;stop-opacity:0.3368"/>
		<stop  offset="1" style="stop-color:#00A14B;stop-opacity:0.27"/>
	</linearGradient>
	<path opacity="0.66" fill="url(#SVGID_25_)" d="M40.846,1.634c0,0,20.284,6.333,19.35,19.206
		c-0.933,12.872-10.692,25.367-10.452,29.396c-0.226-3.941-19.666-14.82-21.766-24.522C25.878,16.011,37.047,5.544,40.846,1.634z"/>
	<g display="none" opacity="0.7">
		
			<linearGradient id="SVGID_26_" gradientUnits="userSpaceOnUse" x1="3.541" y1="-74.0859" x2="4.5809" y2="-56.7076" gradientTransform="matrix(0.9892 0.1466 -0.1466 0.9892 17.7712 106.6786)">
			<stop  offset="0" style="stop-color:#00A14B"/>
			<stop  offset="1" style="stop-color:#ED1C24;stop-opacity:0.32"/>
		</linearGradient>
		<path display="inline" fill="url(#SVGID_26_)" d="M32.563,33.917c0,0,0.822,3.438-0.014,7.622
			c-0.837,4.183-2.064,6.612-2.293,7.957c0.225-1.314-0.383-5.153,0.081-8.493C30.801,37.663,32.1,34.954,32.563,33.917z"/>
		
			<linearGradient id="SVGID_27_" gradientUnits="userSpaceOnUse" x1="-150.7085" y1="-342.8145" x2="-149.6686" y2="-325.4361" gradientTransform="matrix(0.8464 0.5326 -0.5326 0.8464 -16.372 406.3468)">
			<stop  offset="0" style="stop-color:#00A14B"/>
			<stop  offset="1" style="stop-color:#ED1C24;stop-opacity:0.32"/>
		</linearGradient>
		<path display="inline" fill="url(#SVGID_27_)" d="M39.041,36.1c0,0-0.632,3.478-3.083,6.971c-2.451,3.492-4.551,5.221-5.304,6.358
			c0.736-1.112,1.726-4.871,3.495-7.741C35.918,38.819,38.2,36.862,39.041,36.1z"/>
		
			<linearGradient id="SVGID_28_" gradientUnits="userSpaceOnUse" x1="-399.4834" y1="-525.6313" x2="-398.4435" y2="-508.2514" gradientTransform="matrix(0.5602 0.8283 -0.8283 0.5602 -167.7839 665.7373)">
			<stop  offset="0" style="stop-color:#00A14B"/>
			<stop  offset="1" style="stop-color:#ED1C24;stop-opacity:0.32"/>
		</linearGradient>
		<path display="inline" fill="url(#SVGID_28_)" d="M44.091,40.707c0,0-1.98,2.929-5.629,5.139
			c-3.648,2.208-6.269,2.944-7.416,3.684c1.122-0.722,3.541-3.764,6.317-5.678C40.139,41.938,43.014,41.066,44.091,40.707z"/>
		
			<linearGradient id="SVGID_29_" gradientUnits="userSpaceOnUse" x1="-701.9219" y1="-593.3691" x2="-700.882" y2="-575.9902" gradientTransform="matrix(0.1792 0.9838 -0.9838 0.1792 -411.2457 843.4312)">
			<stop  offset="0" style="stop-color:#00A14B"/>
			<stop  offset="1" style="stop-color:#ED1C24;stop-opacity:0.32"/>
		</linearGradient>
		<path display="inline" fill="url(#SVGID_29_)" d="M46.859,46.958c0,0-2.992,1.883-7.223,2.437
			c-4.229,0.552-6.924,0.171-8.271,0.385c1.317-0.208,4.757-2.018,8.068-2.653C42.746,46.492,45.728,46.852,46.859,46.958z"/>
		
			<linearGradient id="SVGID_30_" gradientUnits="userSpaceOnUse" x1="-1005.8599" y1="-533.9746" x2="-1004.8199" y2="-516.5957" gradientTransform="matrix(-0.2322 0.9727 -0.9727 -0.2322 -706.0401 907.7777)">
			<stop  offset="0" style="stop-color:#00A14B"/>
			<stop  offset="1" style="stop-color:#ED1C24;stop-opacity:0.32"/>
		</linearGradient>
		<path display="inline" fill="url(#SVGID_30_)" d="M46.874,53.793c0,0-3.497,0.519-7.592-0.679
			c-4.094-1.197-6.406-2.632-7.727-2.979c1.291,0.34,5.168,0.069,8.454,0.821C43.295,51.71,45.881,53.241,46.874,53.793z"/>
		
			<linearGradient id="SVGID_31_" gradientUnits="userSpaceOnUse" x1="-1259.73" y1="-356.1675" x2="-1258.6901" y2="-338.7886" gradientTransform="matrix(-0.6042 0.7968 -0.7968 -0.6042 -1000.5759 848.238)">
			<stop  offset="0" style="stop-color:#00A14B"/>
			<stop  offset="1" style="stop-color:#ED1C24;stop-opacity:0.32"/>
		</linearGradient>
		<path display="inline" fill="url(#SVGID_31_)" d="M44.135,60.055c0,0-3.409-0.933-6.675-3.677
			c-3.266-2.746-4.805-4.99-5.874-5.838c1.044,0.831,4.703,2.143,7.408,4.156C41.7,56.709,43.448,59.151,44.135,60.055z"/>
		
			<linearGradient id="SVGID_32_" gradientUnits="userSpaceOnUse" x1="-1421.019" y1="-92.5752" x2="-1419.9791" y2="-75.1968" gradientTransform="matrix(-0.874 0.486 -0.486 -0.874 -1247.5123 674.133)">
			<stop  offset="0" style="stop-color:#00A14B"/>
			<stop  offset="1" style="stop-color:#ED1C24;stop-opacity:0.32"/>
		</linearGradient>
		<path display="inline" fill="url(#SVGID_32_)" d="M39.106,64.686c0,0-2.746-2.228-4.629-6.056
			c-1.882-3.828-2.388-6.502-3.024-7.709c0.621,1.182,3.441,3.856,5.106,6.788C38.224,60.641,38.842,63.58,39.106,64.686z"/>
		
			<linearGradient id="SVGID_33_" gradientUnits="userSpaceOnUse" x1="-1462.3193" y1="214.5879" x2="-1461.2794" y2="231.9673" gradientTransform="matrix(-0.9957 0.0929 -0.0929 -0.9957 -1403.0387 416.3159)">
			<stop  offset="0" style="stop-color:#00A14B"/>
			<stop  offset="1" style="stop-color:#ED1C24;stop-opacity:0.32"/>
		</linearGradient>
		<path display="inline" fill="url(#SVGID_33_)" d="M32.639,66.897c0,0-1.616-3.145-1.799-7.406
			c-0.181-4.262,0.433-6.913,0.337-8.274c0.093,1.33,1.597,4.915,1.941,8.27C33.46,62.84,32.843,65.779,32.639,66.897z"/>
		
			<linearGradient id="SVGID_34_" gradientUnits="userSpaceOnUse" x1="-1376.1499" y1="511.5811" x2="-1375.1101" y2="528.9583" gradientTransform="matrix(-0.9488 -0.316 0.316 -0.9488 -1441.101 116.9235)">
			<stop  offset="0" style="stop-color:#00A14B"/>
			<stop  offset="1" style="stop-color:#ED1C24;stop-opacity:0.32"/>
		</linearGradient>
		<path display="inline" fill="url(#SVGID_34_)" d="M25.828,66.317c0,0-0.213-3.528,1.335-7.504
			c1.551-3.974,3.181-6.153,3.641-7.438c-0.45,1.256-0.517,5.142-1.554,8.35C28.214,62.935,26.465,65.377,25.828,66.317z"/>
		
			<linearGradient id="SVGID_35_" gradientUnits="userSpaceOnUse" x1="-1177.8838" y1="749.6455" x2="-1176.8439" y2="767.025" gradientTransform="matrix(-0.7412 -0.6713 0.6713 -0.7412 -1356.104 -171.7872)">
			<stop  offset="0" style="stop-color:#00A14B"/>
			<stop  offset="1" style="stop-color:#ED1C24;stop-opacity:0.32"/>
		</linearGradient>
		<path display="inline" fill="url(#SVGID_35_)" d="M19.827,63.044c0,0,1.227-3.315,4.246-6.33c3.019-3.014,5.389-4.352,6.327-5.342
			c-0.918,0.968-2.544,4.498-4.786,7.017C23.374,60.908,20.789,62.438,19.827,63.044z"/>
		
			<linearGradient id="SVGID_36_" gradientUnits="userSpaceOnUse" x1="-899.79" y1="886.417" x2="-898.7502" y2="903.7953" gradientTransform="matrix(-0.408 -0.913 0.913 -0.408 -1160.535 -401.8553)">
			<stop  offset="0" style="stop-color:#00A14B"/>
			<stop  offset="1" style="stop-color:#ED1C24;stop-opacity:0.32"/>
		</linearGradient>
		<path display="inline" fill="url(#SVGID_36_)" d="M15.653,57.631c0,0,2.458-2.541,6.435-4.084
			c3.978-1.543,6.685-1.813,7.943-2.342c-1.23,0.517-4.14,3.092-7.206,4.496C19.759,57.104,16.777,57.464,15.653,57.631z"/>
		
			<linearGradient id="SVGID_37_" gradientUnits="userSpaceOnUse" x1="-590.9854" y1="900.875" x2="-589.9455" y2="918.2534" gradientTransform="matrix(-0.0058 -1 1 -0.0058 -890.2305 -534.3398)">
			<stop  offset="0" style="stop-color:#00A14B"/>
			<stop  offset="1" style="stop-color:#ED1C24;stop-opacity:0.32"/>
		</linearGradient>
		<path display="inline" fill="url(#SVGID_37_)" d="M14.013,50.996c0,0,3.273-1.336,7.535-1.147c4.262,0.19,6.849,1.033,8.213,1.055
			c-1.334-0.022-5.035,1.163-8.406,1.213C17.983,52.167,15.108,51.295,14.013,50.996z"/>
		
			<linearGradient id="SVGID_38_" gradientUnits="userSpaceOnUse" x1="-301.8003" y1="789.8135" x2="-300.7604" y2="807.1929" gradientTransform="matrix(0.3974 -0.9176 0.9176 0.3974 -589.7308 -546.1307)">
			<stop  offset="0" style="stop-color:#00A14B"/>
			<stop  offset="1" style="stop-color:#ED1C24;stop-opacity:0.32"/>
		</linearGradient>
		<path display="inline" fill="url(#SVGID_38_)" d="M15.184,44.261c0,0,3.534,0.095,7.358,1.985c3.825,1.89,5.853,3.704,7.093,4.274
			c-1.211-0.559-5.077-0.962-8.184-2.275C18.345,46.933,16.066,44.977,15.184,44.261z"/>
		
			<linearGradient id="SVGID_39_" gradientUnits="userSpaceOnUse" x1="-83.0381" y1="571.3232" x2="-81.9982" y2="588.7027" gradientTransform="matrix(0.7333 -0.6799 0.6799 0.7333 -308.8569 -436.5095)">
			<stop  offset="0" style="stop-color:#00A14B"/>
			<stop  offset="1" style="stop-color:#ED1C24;stop-opacity:0.32"/>
		</linearGradient>
		<path display="inline" fill="url(#SVGID_39_)" d="M18.967,38.568c0,0,3.196,1.511,5.937,4.78c2.739,3.271,3.866,5.746,4.771,6.768
			c-0.884-0.998-4.259-2.926-6.574-5.377C20.785,42.287,19.486,39.579,18.967,38.568z"/>
		
			<linearGradient id="SVGID_40_" gradientUnits="userSpaceOnUse" x1="29.9009" y1="283.2813" x2="30.9408" y2="300.6607" gradientTransform="matrix(0.945 -0.327 0.327 0.945 -96.5497 -222.8495)">
			<stop  offset="0" style="stop-color:#00A14B"/>
			<stop  offset="1" style="stop-color:#ED1C24;stop-opacity:0.32"/>
		</linearGradient>
		<path display="inline" fill="url(#SVGID_40_)" d="M24.723,34.881c0,0,2.318,2.669,3.509,6.766c1.19,4.097,1.224,6.818,1.641,8.117
			c-0.407-1.27-2.72-4.393-3.852-7.57C24.89,39.018,24.791,36.016,24.723,34.881z"/>
	</g>
</g>
</svg>
