<?xml version="1.0" encoding="utf-8"?>
<!-- Generator: Adobe Illustrator 15.0.2, SVG Export Plug-In . SVG Version: 6.00 Build 0)  -->
<!DOCTYPE svg PUBLIC "-//W3C//DTD SVG 1.1//EN" "http://www.w3.org/Graphics/SVG/1.1/DTD/svg11.dtd">
<svg version="1.1" id="Layer_1" xmlns="http://www.w3.org/2000/svg" xmlns:xlink="http://www.w3.org/1999/xlink" x="0px" y="0px"
	 width="100px" height="100px" viewBox="0 0 100 100" enable-background="new 0 0 100 100" xml:space="preserve">
<path fill="#C7EEF9" stroke="#231F20" stroke-width="3" stroke-miterlimit="10" d="M65.094,63.958h14.209
	c1.775-3.983,2.77-10.993,2.77-15.637c0-17.712-14.359-32.072-32.071-32.072c-17.716,0-32.074,14.36-32.074,32.072
	c0,4.644,0.995,11.654,2.769,15.637h13.593v17.891c4.837,2.927,9.644,4.612,15.712,4.612c5.813,0,10.394-1.555,15.093-4.258V63.958z
	"/>
<path fill="#C7EEF9" stroke="#FFFFFF" stroke-width="3" stroke-miterlimit="10" d="M26.617,33.244
	c-1.327,1.94-2.431,4.042-3.278,6.271"/>
<path fill="#C7EEF9" stroke="#FFFFFF" stroke-width="2" stroke-miterlimit="10" d="M26.451,32.584"/>
<path fill="#C7EEF9" stroke="#FFFFFF" stroke-width="3" stroke-miterlimit="10" d="M49.596,20.201
	c-8.772,0.526-16.528,4.816-21.675,11.277"/>
<path fill="#FFFFFF" stroke="#231F20" stroke-width="3" stroke-miterlimit="10" d="M68.511,44.601c0,4.09-3.315,7.405-7.404,7.405
	c-4.092,0-7.405-3.315-7.405-7.405c0-4.088,3.313-3.936,7.405-3.936C65.195,40.665,68.511,40.512,68.511,44.601z"/>
<path fill="#FFFFFF" stroke="#231F20" stroke-width="3" stroke-miterlimit="10" d="M45.972,44.601c0,4.09-3.313,7.405-7.403,7.405
	c-4.09,0-7.404-3.315-7.404-7.405c0-4.088,3.314-3.936,7.404-3.936C42.659,40.665,45.972,40.512,45.972,44.601z"/>
<path fill="#FFFFFF" stroke="#231F20" stroke-width="3" stroke-miterlimit="10" d="M45.253,67.529c0,0,1.857-11.333,4.781-11.333
	c2.922,0,4.713,11.402,4.713,11.402L45.253,67.529z"/>
<rect x="43.226" y="77.035" fill="#231F20" width="3.307" height="9.426"/>
<rect x="53.63" y="77.035" fill="#231F20" width="3.304" height="9.426"/>
<circle fill="none" stroke="#BE1E2D" stroke-width="7" cx="50" cy="50.373" r="45.725"/>
<rect x="46.166" y="5.84" transform="matrix(0.7048 0.7094 -0.7094 0.7048 50.8728 -20.248)" fill="#BE1E2D" width="7.196" height="90.317"/>
</svg>
