<?xml version="1.0" encoding="utf-8"?>
<!-- Generator: Adobe Illustrator 15.0.2, SVG Export Plug-In . SVG Version: 6.00 Build 0)  -->
<!DOCTYPE svg PUBLIC "-//W3C//DTD SVG 1.1//EN" "http://www.w3.org/Graphics/SVG/1.1/DTD/svg11.dtd">
<svg version="1.1" id="Layer_1" xmlns="http://www.w3.org/2000/svg" xmlns:xlink="http://www.w3.org/1999/xlink" x="0px" y="0px"
	 width="100px" height="100px" viewBox="0 0 100 100" enable-background="new 0 0 100 100" xml:space="preserve">
<g>
	<defs>
		<polygon id="SVGID_1_" points="49.762,30.944 37.428,19.278 5.529,26.549 18.17,40.053 		"/>
	</defs>
	<clipPath id="SVGID_2_">
		<use xlink:href="#SVGID_1_"  overflow="visible"/>
	</clipPath>
	
		<linearGradient id="SVGID_3_" gradientUnits="userSpaceOnUse" x1="-361.1079" y1="346.2432" x2="-360.3738" y2="346.2432" gradientTransform="matrix(5.7519 21.4664 21.4664 -5.7519 -5330.1333 9764.4668)">
		<stop  offset="0" style="stop-color:#D7C48D"/>
		<stop  offset="1" style="stop-color:#B18E38"/>
	</linearGradient>
	<polygon clip-path="url(#SVGID_2_)" fill="url(#SVGID_3_)" points="46.798,8.221 54.954,38.662 8.492,51.111 0.336,20.67 	"/>
</g>
<g>
	<defs>
		<polygon id="SVGID_4_" points="5.381,26.943 5.529,26.549 18.17,40.053 17.852,40.24 		"/>
	</defs>
	<clipPath id="SVGID_5_">
		<use xlink:href="#SVGID_4_"  overflow="visible"/>
	</clipPath>
	
		<linearGradient id="SVGID_6_" gradientUnits="userSpaceOnUse" x1="-368.1279" y1="337.9326" x2="-367.3936" y2="337.9326" gradientTransform="matrix(17.4219 0 0 -17.4219 6418.8735 5920.814)">
		<stop  offset="0" style="stop-color:#996F0E"/>
		<stop  offset="1" style="stop-color:#5B3207"/>
	</linearGradient>
	<rect x="5.381" y="26.549" clip-path="url(#SVGID_5_)" fill="url(#SVGID_6_)" width="12.789" height="13.691"/>
</g>
<g>
	<defs>
		<polygon id="SVGID_7_" points="81.272,40.415 94.418,26.73 62.583,19.021 49.666,31.317 		"/>
	</defs>
	<clipPath id="SVGID_8_">
		<use xlink:href="#SVGID_7_"  overflow="visible"/>
	</clipPath>
	
		<linearGradient id="SVGID_9_" gradientUnits="userSpaceOnUse" x1="-364.2896" y1="350.959" x2="-363.5556" y2="350.959" gradientTransform="matrix(-18.6226 26.382 26.382 18.6226 -15966.917 3098.8591)">
		<stop  offset="0" style="stop-color:#D7C48D"/>
		<stop  offset="1" style="stop-color:#B18E38"/>
	</linearGradient>
	<polygon clip-path="url(#SVGID_8_)" fill="url(#SVGID_9_)" points="104.497,26.136 79.535,61.499 39.586,33.3 64.548,-2.063 	"/>
</g>
<g>
	<defs>
		<polygon id="SVGID_10_" points="94.604,27.084 94.418,26.73 81.272,40.415 81.656,40.641 		"/>
	</defs>
	<clipPath id="SVGID_11_">
		<use xlink:href="#SVGID_10_"  overflow="visible"/>
	</clipPath>
	
		<linearGradient id="SVGID_12_" gradientUnits="userSpaceOnUse" x1="-369.6753" y1="338.3486" x2="-368.9409" y2="338.3486" gradientTransform="matrix(18.1592 0 0 -18.1592 6794.2715 6177.8379)">
		<stop  offset="0" style="stop-color:#996F0E"/>
		<stop  offset="1" style="stop-color:#5B3207"/>
	</linearGradient>
	<rect x="81.272" y="26.73" clip-path="url(#SVGID_11_)" fill="url(#SVGID_12_)" width="13.331" height="13.91"/>
</g>
<g>
	<defs>
		<polygon id="SVGID_13_" points="49.339,30.992 81.272,40.415 79.039,79.853 49.229,66.613 		"/>
	</defs>
	<clipPath id="SVGID_14_">
		<use xlink:href="#SVGID_13_"  overflow="visible"/>
	</clipPath>
	
		<linearGradient id="SVGID_15_" gradientUnits="userSpaceOnUse" x1="-363.8853" y1="348.0703" x2="-363.1509" y2="348.0703" gradientTransform="matrix(-1.5309 34.4445 34.4445 1.5309 -12479.7266 12030.2627)">
		<stop  offset="0" style="stop-color:#996F0E"/>
		<stop  offset="1" style="stop-color:#5B3207"/>
	</linearGradient>
	<polygon clip-path="url(#SVGID_14_)" fill="url(#SVGID_15_)" points="83.44,31.088 81.209,81.275 47.063,79.756 49.293,29.569 	"/>
</g>
<g>
	<defs>
		<polygon id="SVGID_16_" points="49.762,30.944 18.17,40.053 20.127,79.447 49.451,65.369 		"/>
	</defs>
	<clipPath id="SVGID_17_">
		<use xlink:href="#SVGID_16_"  overflow="visible"/>
	</clipPath>
	
		<linearGradient id="SVGID_18_" gradientUnits="userSpaceOnUse" x1="-361.4028" y1="348.9697" x2="-360.6689" y2="348.9697" gradientTransform="matrix(-2.2995 22.9947 22.9947 2.2995 -8818.8184 7535.9214)">
		<stop  offset="0" style="stop-color:#996F0E"/>
		<stop  offset="1" style="stop-color:#5B3207"/>
	</linearGradient>
	<polygon clip-path="url(#SVGID_17_)" fill="url(#SVGID_18_)" points="54.563,31.424 49.447,82.574 13.368,78.967 18.482,27.816 	
		"/>
</g>
<g>
	
		<rect x="51.369" y="17.439" transform="matrix(0.9579 0.2872 -0.2872 0.9579 12.6998 -17.2945)" fill="#F1F1F1" width="27.871" height="34.411"/>
	
		<rect x="56.872" y="24.36" transform="matrix(0.9579 0.2872 -0.2872 0.9579 9.7491 -16.4559)" fill="#2D688D" width="8.181" height="1.282"/>
	
		<rect x="55.814" y="28.901" transform="matrix(0.9579 0.2872 -0.2872 0.9579 11.302 -17.9525)" fill="#2D688D" width="22.041" height="1.282"/>
	
		<rect x="55.05" y="31.453" transform="matrix(0.9579 0.2873 -0.2873 0.9579 12.0034 -17.6261)" fill="#2D688D" width="22.04" height="1.282"/>
	
		<rect x="54.285" y="34.003" transform="matrix(0.9579 0.2872 -0.2872 0.9579 12.701 -17.296)" fill="#2D688D" width="22.041" height="1.283"/>
	
		<rect x="53.519" y="36.556" transform="matrix(0.9578 0.2873 -0.2873 0.9578 13.4071 -16.9735)" fill="#2D688D" width="22.04" height="1.282"/>
	
		<rect x="52.755" y="39.107" transform="matrix(0.9578 0.2873 -0.2873 0.9578 14.1077 -16.6463)" fill="#2D688D" width="22.04" height="1.282"/>
	
		<rect x="64.922" y="43.555" transform="matrix(0.9579 0.2871 -0.2871 0.9579 15.6107 -18.0482)" fill="#2D688D" width="8.829" height="1.283"/>
</g>
<g>
	
		<rect x="25.868" y="27.151" transform="matrix(0.7322 0.6811 -0.6811 0.7322 42.9561 -23.4437)" fill="#F1F1F1" width="50.845" height="31.505"/>
	
		<rect x="35.702" y="31.018" transform="matrix(0.7322 0.6811 -0.6811 0.7322 38.3872 -32.9728)" fill="#AB5555" width="50.847" height="2.626"/>
	
		<rect x="42.207" y="31.724" transform="matrix(0.7322 0.6811 -0.6811 0.7322 38.3878 -32.9733)" fill="#F1F1F1" width="37.837" height="1.215"/>
	<path fill="#F1F1F1" d="M43.779,16.197c-0.227,0.245-0.611,0.26-0.857,0.03c-0.245-0.228-0.26-0.611-0.031-0.858
		c0.229-0.244,0.613-0.258,0.858-0.031C43.996,15.567,44.009,15.951,43.779,16.197"/>
	<path fill="#F5D1AE" d="M45.051,17.379c-0.229,0.245-0.613,0.26-0.858,0.029c-0.245-0.227-0.26-0.611-0.031-0.857
		c0.229-0.245,0.612-0.259,0.858-0.031C45.265,16.748,45.279,17.134,45.051,17.379"/>
	<path fill="#2D688D" d="M46.32,18.561c-0.228,0.245-0.613,0.26-0.857,0.031c-0.246-0.229-0.26-0.613-0.031-0.859
		s0.612-0.258,0.857-0.031C46.535,17.93,46.549,18.314,46.32,18.561"/>
	
		<rect x="75.408" y="46.137" transform="matrix(0.7322 0.6811 -0.6811 0.7322 52.0472 -39.9505)" fill="#F5D1AE" width="2.843" height="0.154"/>
	
		<rect x="75.166" y="46.396" transform="matrix(0.7321 0.6812 -0.6812 0.7321 52.1802 -39.7232)" fill="#F5D1AE" width="2.844" height="0.154"/>
	
		<rect x="74.926" y="46.655" transform="matrix(0.7322 0.6811 -0.6811 0.7322 52.2707 -39.4837)" fill="#F5D1AE" width="2.843" height="0.155"/>
	
		<rect x="74.686" y="46.912" transform="matrix(0.7324 0.6809 -0.6809 0.7324 52.3622 -39.2457)" fill="#F5D1AE" width="2.844" height="0.155"/>
	
		<rect x="77.772" y="47.941" transform="matrix(0.732 0.6813 -0.6813 0.732 54.1282 -40.5125)" fill="#F5D1AE" width="1.578" height="1.215"/>
	
		<rect x="36.696" y="22.028" transform="matrix(0.7322 0.6811 -0.6811 0.7322 29.9036 -20.9703)" fill="#B5B5B5" width="9.84" height="11.02"/>
	
		<rect x="46.259" y="39.59" transform="matrix(0.7322 0.6811 -0.6811 0.7322 44.3068 -31.5522)" fill="#B5B5B5" width="32.035" height="1.955"/>
	
		<rect x="44.248" y="41.75" transform="matrix(0.7322 0.6811 -0.6811 0.7322 45.2398 -29.6024)" fill="#B5B5B5" width="32.032" height="1.957"/>
	
		<rect x="42.236" y="43.914" transform="matrix(0.7322 0.6811 -0.6811 0.7322 46.1779 -27.6534)" fill="#B5B5B5" width="32.033" height="1.956"/>
	
		<rect x="40.224" y="46.076" transform="matrix(0.7322 0.6811 -0.6811 0.7322 47.1062 -25.7031)" fill="#B5B5B5" width="32.033" height="1.958"/>
	
		<rect x="26.954" y="43.814" transform="matrix(0.7322 0.6811 -0.6811 0.7322 43.7541 -21.6979)" fill="#B5B5B5" width="45.032" height="1.957"/>
	
		<rect x="24.942" y="45.977" transform="matrix(0.7322 0.6811 -0.6811 0.7322 44.6885 -19.7482)" fill="#B5B5B5" width="45.032" height="1.956"/>
	
		<rect x="22.93" y="48.14" transform="matrix(0.7322 0.6811 -0.6811 0.7322 45.6229 -17.7985)" fill="#B5B5B5" width="45.032" height="1.957"/>
	
		<rect x="20.918" y="50.304" transform="matrix(0.7322 0.6811 -0.6811 0.7322 46.5574 -15.8491)" fill="#B5B5B5" width="45.032" height="1.955"/>
</g>
<g>
	<path fill="#AB5555" d="M45.994,62.861c0.465,1.384-0.277,2.88-1.66,3.346s-2.879-0.277-3.346-1.658l-6-17.818
		c-0.465-1.381,0.277-2.879,1.658-3.344c1.383-0.465,2.881,0.277,3.346,1.66L45.994,62.861z"/>
	
		<rect x="33.251" y="35.575" transform="matrix(0.9477 -0.3192 0.3192 0.9477 -11.0257 13.4864)" fill="#AB5555" width="4.77" height="9.618"/>
	<path fill="#AB5555" d="M25.314,9.731c6.943-2.339,14.497,1.409,16.835,8.353c2.339,6.945-1.409,14.497-8.353,16.836
		c-6.943,2.338-14.498-1.408-16.835-8.354C14.623,19.623,18.371,12.07,25.314,9.731 M24.531,7.406
		c-8.24,2.775-12.67,11.704-9.895,19.943c2.775,8.24,11.703,12.67,19.943,9.895c8.239-2.775,12.669-11.703,9.895-19.943
		C41.699,9.062,32.771,4.632,24.531,7.406"/>
	<path fill="#F1F1F1" d="M37.549,36.689c0.107,0.316-0.063,0.659-0.379,0.766l-4.525,1.523c-0.316,0.105-0.659-0.063-0.765-0.379
		c-0.107-0.316,0.063-0.66,0.379-0.765l4.525-1.524C37.101,36.203,37.443,36.373,37.549,36.689"/>
	<path fill="#F1F1F1" d="M40.006,43.986c0.108,0.316-0.063,0.659-0.378,0.766l-4.526,1.523c-0.316,0.107-0.658-0.063-0.764-0.379
		c-0.107-0.316,0.063-0.659,0.378-0.766l4.525-1.525C39.558,43.5,39.899,43.67,40.006,43.986"/>
</g>
<g>
	<defs>
		<polygon id="SVGID_19_" points="49.385,95.172 49.521,51.736 81.272,40.415 79.039,79.853 		"/>
	</defs>
	<clipPath id="SVGID_20_">
		<use xlink:href="#SVGID_19_"  overflow="visible"/>
	</clipPath>
	
		<linearGradient id="SVGID_21_" gradientUnits="userSpaceOnUse" x1="-366.5327" y1="345.5127" x2="-365.7986" y2="345.5127" gradientTransform="matrix(33.4877 34.0857 34.0857 -33.4877 549.7879 24118.6816)">
		<stop  offset="0" style="stop-color:#C0A45A"/>
		<stop  offset="0.1013" style="stop-color:#BB9C4E"/>
		<stop  offset="0.2714" style="stop-color:#B59441"/>
		<stop  offset="0.4974" style="stop-color:#B28F3A"/>
		<stop  offset="1" style="stop-color:#B18E38"/>
	</linearGradient>
	<polygon clip-path="url(#SVGID_20_)" fill="url(#SVGID_21_)" points="65.61,24.474 108.646,68.277 65.047,111.113 22.012,67.309 	
		"/>
</g>
<g>
	<defs>
		<polygon id="SVGID_22_" points="20.127,79.447 18.17,40.053 49.521,51.736 49.385,95.172 		"/>
	</defs>
	<clipPath id="SVGID_23_">
		<use xlink:href="#SVGID_22_"  overflow="visible"/>
	</clipPath>
	
		<linearGradient id="SVGID_24_" gradientUnits="userSpaceOnUse" x1="-368.7456" y1="344.1914" x2="-368.0112" y2="344.1914" gradientTransform="matrix(42.7036 0 0 -42.7036 15764.9287 14765.79)">
		<stop  offset="0" style="stop-color:#D7C48D"/>
		<stop  offset="1" style="stop-color:#B18E38"/>
	</linearGradient>
	<rect x="18.17" y="40.053" clip-path="url(#SVGID_23_)" fill="url(#SVGID_24_)" width="31.351" height="55.119"/>
</g>
<g>
	<defs>
		<rect id="SVGID_25_" x="-150.9" y="-29.833" width="398.596" height="384.794"/>
	</defs>
	<clipPath id="SVGID_26_">
		<use xlink:href="#SVGID_25_"  overflow="visible"/>
	</clipPath>
	<g opacity="0.6" clip-path="url(#SVGID_26_)">
		<g>
			<defs>
				<rect id="SVGID_27_" x="18.17" y="40.053" width="31.351" height="29.58"/>
			</defs>
			<clipPath id="SVGID_28_">
				<use xlink:href="#SVGID_27_"  overflow="visible"/>
			</clipPath>
			<g clip-path="url(#SVGID_28_)">
				<defs>
					<polygon id="SVGID_29_" points="49.521,52.27 32.478,69.633 19.281,62.422 18.17,40.053 					"/>
				</defs>
				<clipPath id="SVGID_30_">
					<use xlink:href="#SVGID_29_"  overflow="visible"/>
				</clipPath>
				
					<linearGradient id="SVGID_31_" gradientUnits="userSpaceOnUse" x1="-363.9766" y1="349.9961" x2="-363.2425" y2="349.9961" gradientTransform="matrix(-10.3381 30.0239 30.0239 10.3381 -14234.3428 7356.1553)">
					<stop  offset="0" style="stop-color:#996F0E"/>
					<stop  offset="1" style="stop-color:#5B3207"/>
				</linearGradient>
				<polygon clip-path="url(#SVGID_30_)" fill="url(#SVGID_31_)" points="58.626,43.188 46.197,79.285 9.064,66.499 21.492,30.402 
									"/>
			</g>
		</g>
	</g>
</g>
<g>
	<defs>
		<polygon id="SVGID_32_" points="30.938,64.324 49.521,51.736 18.17,40.053 0.375,50.449 		"/>
	</defs>
	<clipPath id="SVGID_33_">
		<use xlink:href="#SVGID_32_"  overflow="visible"/>
	</clipPath>
	
		<linearGradient id="SVGID_34_" gradientUnits="userSpaceOnUse" x1="-370.3726" y1="344.4492" x2="-369.6385" y2="344.4492" gradientTransform="matrix(39.0907 -19.1621 -19.1621 -39.0907 21087.2344 6427.8145)">
		<stop  offset="0" style="stop-color:#D7C48D"/>
		<stop  offset="1" style="stop-color:#B18E38"/>
	</linearGradient>
	<polygon clip-path="url(#SVGID_33_)" fill="url(#SVGID_34_)" points="-9.217,44.756 39.998,20.629 59.113,59.622 9.896,83.748 	"/>
</g>
<g>
	<defs>
		<rect id="SVGID_35_" x="-150.9" y="-29.833" width="398.596" height="384.794"/>
	</defs>
	<clipPath id="SVGID_36_">
		<use xlink:href="#SVGID_35_"  overflow="visible"/>
	</clipPath>
	<g opacity="0.6" clip-path="url(#SVGID_36_)">
		<g>
			<defs>
				<rect id="SVGID_37_" x="49.521" y="40.415" width="31.752" height="28.627"/>
			</defs>
			<clipPath id="SVGID_38_">
				<use xlink:href="#SVGID_37_"  overflow="visible"/>
			</clipPath>
			<g clip-path="url(#SVGID_38_)">
				<defs>
					<polygon id="SVGID_39_" points="49.521,52.27 66.057,69.042 80.041,62.16 81.272,40.415 					"/>
				</defs>
				<clipPath id="SVGID_40_">
					<use xlink:href="#SVGID_39_"  overflow="visible"/>
				</clipPath>
				
					<linearGradient id="SVGID_41_" gradientUnits="userSpaceOnUse" x1="-364.0728" y1="346.7129" x2="-363.3387" y2="346.7129" gradientTransform="matrix(7.0341 33.0927 33.0927 -7.0341 -8849.5879 14531.2266)">
					<stop  offset="0" style="stop-color:#996F0E"/>
					<stop  offset="1" style="stop-color:#5B3207"/>
				</linearGradient>
				<polygon clip-path="url(#SVGID_40_)" fill="url(#SVGID_41_)" points="79.9,33.957 87.096,67.805 50.893,75.499 43.697,41.652 
									"/>
			</g>
		</g>
	</g>
</g>
<g>
	<defs>
		<polygon id="SVGID_42_" points="67.74,64.366 49.521,51.736 81.272,40.415 99.109,50.892 		"/>
	</defs>
	<clipPath id="SVGID_43_">
		<use xlink:href="#SVGID_42_"  overflow="visible"/>
	</clipPath>
	
		<linearGradient id="SVGID_44_" gradientUnits="userSpaceOnUse" x1="-371.4561" y1="352.1387" x2="-370.7221" y2="352.1387" gradientTransform="matrix(-29.1272 -19.9292 -19.9292 29.1272 -3725.8269 -17606.2305)">
		<stop  offset="0" style="stop-color:#D7C48D"/>
		<stop  offset="1" style="stop-color:#B18E38"/>
	</linearGradient>
	<polygon clip-path="url(#SVGID_43_)" fill="url(#SVGID_44_)" points="83.297,87.476 38.359,56.729 65.332,17.305 110.271,48.052 	
		"/>
</g>
<g>
	<defs>
		<polygon id="SVGID_45_" points="67.729,64.787 67.74,64.366 49.521,51.736 49.521,52.27 		"/>
	</defs>
	<clipPath id="SVGID_46_">
		<use xlink:href="#SVGID_45_"  overflow="visible"/>
	</clipPath>
	
		<linearGradient id="SVGID_47_" gradientUnits="userSpaceOnUse" x1="-369.0293" y1="341.2988" x2="-368.2949" y2="341.2988" gradientTransform="matrix(24.8174 0 0 -24.8174 9207.875 8528.4063)">
		<stop  offset="0" style="stop-color:#996F0E"/>
		<stop  offset="1" style="stop-color:#5B3207"/>
	</linearGradient>
	<rect x="49.521" y="51.736" clip-path="url(#SVGID_46_)" fill="url(#SVGID_47_)" width="18.22" height="13.051"/>
</g>
<g>
	<defs>
		<polygon id="SVGID_48_" points="30.99,64.727 49.521,52.27 49.521,51.736 30.938,64.324 		"/>
	</defs>
	<clipPath id="SVGID_49_">
		<use xlink:href="#SVGID_48_"  overflow="visible"/>
	</clipPath>
	
		<linearGradient id="SVGID_50_" gradientUnits="userSpaceOnUse" x1="-368.7441" y1="341.4492" x2="-368.0103" y2="341.4492" gradientTransform="matrix(25.3105 0 0 -25.3105 9364.0234 8700.5078)">
		<stop  offset="0" style="stop-color:#996F0E"/>
		<stop  offset="1" style="stop-color:#5B3207"/>
	</linearGradient>
	<rect x="30.938" y="51.736" clip-path="url(#SVGID_49_)" fill="url(#SVGID_50_)" width="18.582" height="12.99"/>
</g>
<g>
	<defs>
		<polygon id="SVGID_51_" points="0.346,50.852 0.375,50.449 30.938,64.324 30.99,64.727 		"/>
	</defs>
	<clipPath id="SVGID_52_">
		<use xlink:href="#SVGID_51_"  overflow="visible"/>
	</clipPath>
	
		<linearGradient id="SVGID_53_" gradientUnits="userSpaceOnUse" x1="-368.5967" y1="344.0029" x2="-367.8628" y2="344.0029" gradientTransform="matrix(41.7437 0 0 -41.7437 15386.915 14417.585)">
		<stop  offset="0" style="stop-color:#996F0E"/>
		<stop  offset="1" style="stop-color:#5B3207"/>
	</linearGradient>
	<rect x="0.346" y="50.449" clip-path="url(#SVGID_52_)" fill="url(#SVGID_53_)" width="30.645" height="14.277"/>
</g>
<g>
	<defs>
		<polygon id="SVGID_54_" points="99.037,51.305 99.109,50.892 67.74,64.366 67.729,64.787 		"/>
	</defs>
	<clipPath id="SVGID_55_">
		<use xlink:href="#SVGID_54_"  overflow="visible"/>
	</clipPath>
	
		<linearGradient id="SVGID_56_" gradientUnits="userSpaceOnUse" x1="-369.1606" y1="344.1172" x2="-368.4263" y2="344.1172" gradientTransform="matrix(42.7441 0 0 -42.7441 15847.1758 14766.793)">
		<stop  offset="0" style="stop-color:#996F0E"/>
		<stop  offset="1" style="stop-color:#5B3207"/>
	</linearGradient>
	<rect x="67.729" y="50.892" clip-path="url(#SVGID_55_)" fill="url(#SVGID_56_)" width="31.38" height="13.896"/>
</g>
</svg>
