<?xml version="1.0" encoding="UTF-8"?>
<!DOCTYPE svg PUBLIC "-//W3C//DTD SVG 1.1//EN" "http://www.w3.org/Graphics/SVG/1.1/DTD/svg11.dtd">
<!-- Creator: CorelDRAW 2019 (64-Bit) -->
<svg xmlns="http://www.w3.org/2000/svg" xml:space="preserve" width="210mm" height="297mm" version="1.1" style="shape-rendering:geometricPrecision; text-rendering:geometricPrecision; image-rendering:optimizeQuality; fill-rule:evenodd; clip-rule:evenodd"
viewBox="0 0 21000 29700"
 xmlns:xlink="http://www.w3.org/1999/xlink"
 xmlns:xodm="http://www.corel.com/coreldraw/odm/2003">
 <defs>
  <style type="text/css">
   <![CDATA[
    .fil6 {fill:#1A2B63}
    .fil5 {fill:#293D7C}
    .fil8 {fill:#2BB381}
    .fil0 {fill:#52BBEF}
    .fil9 {fill:#999CAD}
    .fil11 {fill:#B7092B}
    .fil2 {fill:#D9EAFC}
    .fil7 {fill:#EA2A3D}
    .fil1 {fill:#EEF6FF}
    .fil10 {fill:#FE3745}
    .fil4 {fill:#FF9518}
    .fil3 {fill:#FFAF10}
    .fil14 {fill:#FFD00D}
    .fil13 {fill:#FFDD8D}
    .fil12 {fill:white}
   ]]>
  </style>
 </defs>
 <g id="Слой_x0020_1">
  <metadata id="CorelCorpID_0Corel-Layer"/>
  <circle class="fil0" cx="10500" cy="15301.17" r="10048.83"/>
  <path class="fil1" d="M15369.01 14357.81l-126.21 218.61c-46.92,81.25 -107.13,126 -169.56,126 -62.43,0 -122.64,-44.75 -169.56,-126l-126.21 -218.61 -8554.95 0 -126.21 218.61c-46.92,81.25 -107.13,126 -169.56,126 -62.43,0 -122.64,-44.75 -169.56,-126l-126.21 -218.61 -4003.27 0 0 5664.38c761.82,1428.7 1858.46,2651.58 3185.4,3564.13l11373.79 0.01c1326.94,-912.56 2423.57,-2135.44 3185.4,-3564.13l-0.01 -5664.39 -4003.28 0z"/>
  <path class="fil2" d="M1627.71 14357.81l0 5664.38c239.29,448.75 511.71,877.16 813.83,1282.07l0 -6946.45 -813.83 0z"/>
  <g id="_2382434671616">
   <path class="fil3" d="M4168.58 11824.77c-46.92,-81.29 -55.58,-155.78 -24.36,-209.84 31.22,-54.06 100.08,-83.84 193.92,-83.84l827.7 0.01c22.64,0 41.02,-18.33 41.02,-41.02l0 -1813.51 -3579.15 0.01 0 4722.25 4026.95 0 -1486.08 -2574.06z"/>
   <path class="fil3" d="M6646.71 11490.08c0,22.68 18.38,41.02 41.02,41.02l827.69 0c93.84,0 162.71,29.78 193.92,83.84 31.21,54.06 22.56,128.58 -24.36,209.84l-1486.12 2574.05 8602.28 0 -1486.08 -2574.06c-46.92,-81.29 -55.58,-155.78 -24.36,-209.84 31.21,-54.06 100.08,-83.84 193.92,-83.84l827.7 0.01c22.64,0 41.02,-18.33 41.02,-41.02l0 -1813.51 -2157.3 0.01 -1526.48 2643.99c-46.92,81.25 -107.13,126 -169.56,126 -62.43,0 -122.64,-44.75 -169.56,-126l-1526.48 -2643.99 -2157.3 0 0.05 1813.5 0 0z"/>
   <path class="fil3" d="M15793.19 9676.58l0 1813.51c0,22.68 18.38,41.02 41.02,41.02l827.69 -0.01c93.84,0 162.71,29.78 193.92,83.84 31.21,54.06 22.56,128.58 -24.36,209.84l-1486.12 2574.05 4026.95 0 0 -4722.25 -3579.1 0z"/>
  </g>
  <rect class="fil4" x="1627.7" y="9676.69" width="813.83" height="4722.13"/>
  <g id="_2382434666048">
   <path class="fil5" d="M1627.71 7895.96l0 1821.63 3579.1 0 0 -254.34c0,-90.48 73.58,-164.06 164.06,-164.06l1111.73 0c90.48,0 164.06,73.58 164.06,164.06l0 254.34 2180.97 0 -85.85 -148.68c-46.92,-81.29 -55.58,-155.78 -24.36,-209.84 31.22,-54.06 100.08,-83.84 193.92,-83.84l827.7 0.01c22.64,0 41.02,-18.33 41.02,-41.02l-0.01 -1766.87 -7723.73 0c-235.72,0 -428.61,192.9 -428.61,428.61z"/>
   <path class="fil5" d="M18943.68 7467.35l-7723.73 0 0 1766.87c0,22.68 18.38,41.02 41.02,41.02l827.69 0c93.84,0 162.71,29.78 193.92,83.84 31.21,54.06 22.56,128.58 -24.36,209.84l-85.85 148.68 2180.97 -0.01 0 -254.34c0,-90.48 73.58,-164.06 164.06,-164.06l1111.73 0c90.48,0 164.06,73.58 164.06,164.06l0 254.34 3579.1 0 0 -1821.63c0,-235.71 -192.89,-428.61 -428.61,-428.61z"/>
  </g>
  <path class="fil6" d="M2870.15 7467.35l-813.83 0c-235.72,0 -428.61,192.9 -428.61,428.61l0 1821.63 813.83 0 0 -1821.63c0,-235.71 192.89,-428.61 428.61,-428.61z"/>
  <path class="fil7" d="M2935.65 8844.62c-84.86,0 -167.59,-34.33 -227.6,-93.93 -59.55,-60.01 -93.88,-142.69 -93.88,-227.51 0,-84.49 34.29,-167.18 93.88,-227.19 60.01,-60.05 142.73,-94.29 227.6,-94.29 84.41,0 167.59,34.25 227.14,94.29 60.01,60.01 94.34,142.69 94.34,227.19 0,84.78 -34.29,167.51 -94.34,227.51 -59.55,59.6 -142.73,93.93 -227.14,93.93z"/>
  <path class="fil3" d="M3989.79 8844.62c-84.45,0 -167.59,-34.33 -227.19,-94.38 -60.01,-59.55 -94.25,-142.28 -94.25,-227.06 0,-84.49 34.25,-167.18 94.25,-227.19 60.01,-60.05 142.73,-94.29 227.19,-94.29 84.86,0 167.55,34.25 227.6,94.29 59.55,60.01 93.88,142.69 93.88,227.19 0,84.37 -34.29,167.51 -93.88,227.06 -60.05,60.05 -142.73,94.38 -227.6,94.38z"/>
  <path class="fil8" d="M5044.39 8844.62c-84.86,0 -167.59,-34.33 -227.14,-93.93 -60.01,-60.01 -94.34,-142.69 -94.34,-227.51 0,-84.49 34.33,-167.18 94.34,-227.19 59.55,-60.05 142.28,-94.29 227.14,-94.29 84.45,0 167.59,34.25 227.19,94.29 60.01,60.01 94.29,142.69 94.29,227.19 0,84.78 -34.25,167.51 -94.29,227.51 -60.05,59.6 -142.74,93.93 -227.19,93.93z"/>
  <path class="fil9" d="M18343.62 8830.79l-1028.67 0c-169.89,0 -307.62,-137.69 -307.62,-307.62 0,-169.93 137.73,-307.62 307.62,-307.62l1028.67 0.01c169.89,0 307.62,137.69 307.62,307.62 0,169.93 -137.73,307.61 -307.62,307.61z"/>
  <path class="fil10" d="M12088.62 9234.22l-827.7 0 0 -4679.14c0,-112.79 -92.29,-205.08 -205.08,-205.08l-1111.72 0c-112.79,0 -205.08,92.29 -205.08,205.08l0 4679.14 -827.7 0c-225.59,0 -317.87,159.84 -205.08,355.2l1588.66 2751.65c112.79,195.36 297.36,195.36 410.16,0l1588.62 -2751.66c112.79,-195.35 20.5,-355.19 -205.08,-355.19z"/>
  <path class="fil11" d="M8757.98 9678.96l1302.74 0c67.96,0 123.05,-55.08 123.05,-123.05l0 -5205.91 -239.61 0c-112.79,0 -205.08,92.29 -205.08,205.08l0 4679.14 -827.7 0c-225.59,0 -317.87,159.84 -205.08,355.2l51.68 89.54z"/>
  <path class="fil10" d="M16661.86 11490.08l-827.7 0 0 -2026.83c0,-112.79 -92.29,-205.08 -205.08,-205.08l-1111.72 0.01c-112.79,0 -205.08,92.29 -205.08,205.08l0 2026.83 -827.7 -0.01c-225.59,0 -317.87,159.88 -205.08,355.2l1588.66 2751.65c112.79,195.36 297.36,195.36 410.16,0l1588.62 -2751.66c112.79,-195.31 20.51,-355.19 -205.08,-355.19z"/>
  <path class="fil11" d="M13334.96 11941.25l1305.49 0c67.96,0 123.05,-55.08 123.05,-123.05l0 -2560.03 -246.1 0.01c-112.79,0 -205.08,92.29 -205.08,205.08l0 2026.83 -827.69 -0.01c-225.59,0 -317.87,159.88 -205.08,355.2l55.41 95.97z"/>
  <path class="fil10" d="M7515.37 11490.08l-827.69 0 0 -2026.83c0,-112.79 -92.29,-205.08 -205.08,-205.08l-1111.73 0.01c-112.79,0 -205.08,92.29 -205.08,205.08l0 2026.83 -827.69 -0.01c-225.59,0 -317.87,159.88 -205.08,355.2l1588.66 2751.65c112.79,195.36 297.36,195.36 410.16,0l1588.62 -2751.66c112.79,-195.31 20.5,-355.19 -205.09,-355.19z"/>
  <path class="fil11" d="M4188.47 11941.25l1305.49 0c67.96,0 123.05,-55.08 123.05,-123.05l0 -2560.03 -246.1 0.01c-112.79,0 -205.08,92.29 -205.08,205.08l0 2026.83 -827.69 -0.01c-225.59,0 -317.87,159.88 -205.08,355.2l55.41 95.97z"/>
  <path class="fil12" d="M5885.29 19526.4c-67.68,0 -123.05,55.41 -123.05,123.05l0 1230.59c0,67.68 55.37,123.05 123.05,123.05l7592.98 -0.01 0 -1476.69 -7592.98 0.01z"/>
  <path class="fil2" d="M6576.08 20880.04l0 -1230.59c0,-67.63 55.37,-123.05 123.05,-123.05l-813.84 0c-67.68,0 -123.05,55.41 -123.05,123.05l0 1230.59c0,67.68 55.37,123.05 123.05,123.05l813.83 -0.01c-67.63,0 -123.04,-55.37 -123.04,-123.04z"/>
  <g id="_2382434639360">
   <path class="fil13" d="M14762.96 16448.71l-5408.77 0c-169.89,0 -307.62,-137.69 -307.62,-307.62 0,-169.93 137.73,-307.62 307.62,-307.62l5408.77 0c169.89,0 307.62,137.69 307.62,307.62 0,169.93 -137.69,307.62 -307.62,307.62z"/>
   <path class="fil13" d="M14762.96 17453.1l-5408.77 0c-169.89,0 -307.62,-137.69 -307.62,-307.62 0,-169.93 137.73,-307.62 307.62,-307.62l5408.77 0c169.89,0 307.62,137.69 307.62,307.62 0,169.89 -137.69,307.62 -307.62,307.62z"/>
   <path class="fil13" d="M14762.96 18457.45l-5408.77 0c-169.89,0 -307.62,-137.69 -307.62,-307.62 0,-169.93 137.73,-307.62 307.62,-307.62l5408.77 0c169.89,0 307.62,137.69 307.62,307.62 0,169.93 -137.69,307.62 -307.62,307.62z"/>
  </g>
  <path class="fil3" d="M15114.71 19526.4l-1677.42 0 0 1476.69 1677.42 -0.01c67.68,0 123.05,-55.37 123.05,-123.05l0 -1230.59c0,-67.67 -55.38,-123.04 -123.05,-123.04z"/>
  <circle class="fil13" cx="7013.67" cy="17023.83" r="1517.58"/>
  <path class="fil14" d="M6309.93 17023.83c0,-697.1 470.2,-1284.08 1110.66,-1461.96 -129.53,-36.01 -265.91,-55.62 -406.92,-55.62 -838.15,0 -1517.58,679.42 -1517.58,1517.58 0,838.16 679.42,1517.58 1517.58,1517.58 141.01,0 277.39,-19.61 406.92,-55.62 -640.42,-177.89 -1110.66,-764.86 -1110.66,-1461.96z"/>
  <g id="_2382434632832">
  </g>
  <g id="_2382434630784">
  </g>
  <g id="_2382434629152">
  </g>
  <g id="_2382434627168">
  </g>
  <g id="_2382434627520">
  </g>
  <g id="_2382434625568">
  </g>
  <g id="_2382434686496">
  </g>
  <g id="_2382434685632">
  </g>
  <g id="_2382434684288">
  </g>
  <g id="_2382434681248">
  </g>
  <g id="_2382434682464">
  </g>
  <g id="_2382434681056">
  </g>
  <g id="_2382434678880">
  </g>
  <g id="_2382434677280">
  </g>
  <g id="_2382434675904">
  </g>
 </g>
</svg>
