<?xml version="1.0" encoding="UTF-8"?>
<!DOCTYPE svg PUBLIC "-//W3C//DTD SVG 1.1//EN" "http://www.w3.org/Graphics/SVG/1.1/DTD/svg11.dtd">
<!-- Creator: CorelDRAW 2019 (64-Bit) -->
<svg xmlns="http://www.w3.org/2000/svg" xml:space="preserve" width="210mm" height="297mm" version="1.1" style="shape-rendering:geometricPrecision; text-rendering:geometricPrecision; image-rendering:optimizeQuality; fill-rule:evenodd; clip-rule:evenodd"
viewBox="0 0 21000 29700"
 xmlns:xlink="http://www.w3.org/1999/xlink"
 xmlns:xodm="http://www.corel.com/coreldraw/odm/2003">
 <defs>
  <style type="text/css">
   <![CDATA[
    .fil3 {fill:#02AF8E}
    .fil4 {fill:#0F9390}
    .fil5 {fill:#1A2B63}
    .fil7 {fill:#1E99D6}
    .fil19 {fill:#293D7C}
    .fil14 {fill:#37C47A}
    .fil6 {fill:#52BBEF}
    .fil0 {fill:#A53535}
    .fil2 {fill:#C3DDF4}
    .fil1 {fill:#D9EAFC}
    .fil9 {fill:#EEF6FF}
    .fil15 {fill:#F87EAB}
    .fil13 {fill:#FE3745}
    .fil18 {fill:#FF9518}
    .fil11 {fill:#FF9F60}
    .fil17 {fill:#FFAF10}
    .fil8 {fill:#FFD00D}
    .fil10 {fill:#FFDD8D}
    .fil16 {fill:#FFE2B8}
    .fil12 {fill:white}
   ]]>
  </style>
 </defs>
 <g id="Слой_x0020_1">
  <metadata id="CorelCorpID_0Corel-Layer"/>
  <circle class="fil0" cx="10500" cy="15301.17" r="10048.83"/>
  <path class="fil1" d="M2539.44 21433.46c1837.54,2381.82 4719.59,3916.54 7960.56,3916.54 1958.04,0 3784.88,-560.6 5329.9,-1529.23l0 -13960.53 -13290.46 0 0 11573.22z"/>
  <path class="fil2" d="M3353.27 9860.24l-813.83 0 0 11573.21c252,326.65 524.3,636.73 813.83,929.74l0 -12502.95z"/>
  <rect class="fil3" x="2539.44" y="5822.55" width="13290.29" height="4078.59"/>
  <rect class="fil4" x="2539.44" y="5822.55" width="813.83" height="4078.59"/>
  <path class="fil5" d="M15437.91 4350l-12506.44 0c-215.62,0 -392.03,176.41 -392.03,392.03l0 1121.53 13290.46 0 0 -1121.53c0,-215.62 -176.41,-392.03 -391.99,-392.03z"/>
  <path class="fil6" d="M14272.62 16483.73c0,80.6 -65.95,146.55 -146.51,146.55l-5861.26 0c-80.6,0 -146.51,-65.95 -146.51,-146.55l0 -3927c0,-80.6 65.91,-146.55 146.51,-146.55l5861.26 0.01c80.6,0 146.51,65.91 146.51,146.55l0 3926.99z"/>
  <path class="fil7" d="M8932.18 16483.73l0 -3927c0,-80.6 65.91,-146.55 146.51,-146.55l-813.84 0.01c-80.6,0 -146.51,65.91 -146.51,146.55l0 3927c0,80.6 65.91,146.55 146.51,146.55l813.84 -0.01c-80.6,-0.04 -146.51,-65.99 -146.51,-146.55z"/>
  <path class="fil3" d="M12867.05 14704.64c-51.97,-61.61 -136.95,-61.61 -188.88,0l-761.78 903.82c-51.97,61.61 -136.91,61.61 -188.84,0l-1437.97 -1705.88c-51.97,-61.61 -136.91,-61.61 -188.84,0l-1982.37 2351.79 0 229.32c0,80.6 65.91,146.55 146.51,146.55l5861.27 0c80.6,0 146.51,-65.95 146.51,-146.55l0 -111.56 -1405.61 -1667.49z"/>
  <circle class="fil8" cx="13384.63" cy="13233.16" r="439.6"/>
  <g id="_2417957736208">
   <path class="fil7" d="M14067.7 17863.17l-5626.81 0c-169.89,0 -307.62,-137.73 -307.62,-307.62 0,-169.89 137.73,-307.62 307.62,-307.62l5626.85 0.01c169.89,0 307.62,137.73 307.62,307.62 0,169.89 -137.77,307.61 -307.66,307.61z"/>
   <path class="fil7" d="M14067.7 18914.57l-5626.81 0c-169.89,0 -307.62,-137.73 -307.62,-307.62 0,-169.89 137.73,-307.62 307.62,-307.62l5626.85 0c169.89,0 307.62,137.73 307.62,307.62 -0.04,169.89 -137.77,307.62 -307.66,307.62z"/>
   <path class="fil7" d="M14067.7 19965.96l-5626.81 0c-169.89,0 -307.62,-137.73 -307.62,-307.62 0,-169.89 137.73,-307.62 307.62,-307.62l5626.85 0.01c169.89,0 307.62,137.73 307.62,307.62 -0.04,169.92 -137.77,307.61 -307.66,307.61z"/>
   <path class="fil7" d="M14067.7 21017.4l-5626.81 0c-169.89,0 -307.62,-137.73 -307.62,-307.62 0,-169.89 137.73,-307.62 307.62,-307.62l5626.85 0c169.89,0 307.62,137.73 307.62,307.62 0,169.89 -137.77,307.62 -307.66,307.62z"/>
   <path class="fil7" d="M11265.56 22068.79l-2824.67 0c-169.89,0 -307.62,-137.73 -307.62,-307.62 0,-169.89 137.73,-307.62 307.62,-307.62l2824.67 0.01c169.89,0 307.62,137.73 307.62,307.62 0,169.89 -137.74,307.61 -307.62,307.61z"/>
   <path class="fil7" d="M11265.56 11896.92l-2824.67 0c-169.89,0 -307.62,-137.73 -307.62,-307.62 0,-169.89 137.73,-307.62 307.62,-307.62l2824.67 0c169.89,0 307.62,137.73 307.62,307.62 0,169.89 -137.74,307.62 -307.62,307.62z"/>
  </g>
  <g id="_2417957733488">
   <path class="fil9" d="M4007.6 19930.32c0,-112.79 92.29,-205.08 205.08,-205.08l2725.93 0c112.79,0 205.08,92.29 205.08,205.08l0 1919.78c0,112.79 -92.29,205.08 -205.08,205.08l-2725.94 -0.01c-112.79,0 -205.08,-92.29 -205.08,-205.08l0.01 -1919.77z"/>
   <path class="fil9" d="M4007.6 17139.66c0,-112.79 92.29,-205.08 205.08,-205.08l2725.93 0c112.79,0 205.08,92.29 205.08,205.08l0 1919.78c0,112.79 -92.29,205.08 -205.08,205.08l-2725.94 -0.01c-112.79,0 -205.08,-92.29 -205.08,-205.08l0.01 -1919.77z"/>
  </g>
  <g id="_2417957733648">
   <path class="fil10" d="M4007.6 14348.99c0,-112.79 92.29,-205.08 205.08,-205.08l2725.93 0.01c112.79,0 205.08,92.29 205.08,205.08l0 1919.78c0,112.79 -92.29,205.08 -205.08,205.08l-2725.94 -0.01c-112.79,0 -205.08,-92.29 -205.08,-205.08l0.01 -1919.78z"/>
   <path class="fil10" d="M4007.6 11558.33c0,-112.79 92.29,-205.08 205.08,-205.08l2725.93 0c112.79,0 205.08,92.29 205.08,205.08l0 1919.78c0,112.79 -92.29,205.08 -205.08,205.08l-2725.94 0c-112.79,0 -205.08,-92.29 -205.08,-205.08l0.01 -1919.78z"/>
  </g>
  <g id="_2417957732688">
   <path class="fil2" d="M4821.43 21850.1l0 -1919.78c0,-112.79 92.29,-205.08 205.08,-205.08l-813.84 0c-112.79,0 -205.08,92.29 -205.08,205.08l0 1919.78c0,112.79 92.29,205.08 205.08,205.08l813.84 -0.01c-112.8,0 -205.08,-92.28 -205.08,-205.07z"/>
   <path class="fil2" d="M4821.43 19059.43l0 -1919.78c0,-112.79 92.29,-205.08 205.08,-205.08l-813.84 0.01c-112.79,0 -205.08,92.29 -205.08,205.08l0 1919.78c0,112.79 92.29,205.08 205.08,205.08l813.84 -0.01c-112.8,0 -205.08,-92.28 -205.08,-205.08z"/>
  </g>
  <g id="_2417957730288">
   <path class="fil11" d="M4821.43 16268.77l0 -1919.78c0,-112.79 92.29,-205.08 205.08,-205.08l-813.84 0.01c-112.79,0 -205.08,92.29 -205.08,205.08l0 1919.78c0,112.79 92.29,205.08 205.08,205.08l813.84 -0.01c-112.8,0 -205.08,-92.29 -205.08,-205.08z"/>
   <path class="fil11" d="M4821.43 13478.11l0 -1919.78c0,-112.79 92.29,-205.08 205.08,-205.08l-813.84 0c-112.79,0 -205.08,92.29 -205.08,205.08l0 1919.78c0,112.79 92.29,205.08 205.08,205.08l813.84 0c-112.8,0 -205.08,-92.29 -205.08,-205.08z"/>
  </g>
  <g id="_2417957725104">
   <path class="fil12" d="M12672.43 8680.27l-6975.52 0c-169.89,0 -307.62,-137.73 -307.62,-307.62 0,-169.89 137.73,-307.62 307.62,-307.62l6975.52 0c169.89,0 307.62,137.73 307.62,307.62 0,169.89 -137.73,307.62 -307.62,307.62z"/>
   <path class="fil12" d="M10917.91 7522.35l-3466.48 0c-169.89,0 -307.62,-137.73 -307.62,-307.62 0,-169.89 137.73,-307.62 307.62,-307.62l3466.48 0.01c169.89,0 307.62,137.73 307.62,307.62 0,169.89 -137.74,307.61 -307.62,307.61z"/>
  </g>
  <path class="fil13" d="M3480.22 5422.6c-83.88,0 -165.58,-33.92 -224.85,-92.78 -58.9,-59.27 -92.74,-141.01 -92.74,-224.85 0,-83.47 33.84,-165.17 92.74,-224.44 59.27,-59.31 141.01,-93.15 224.85,-93.15 83.38,0 165.54,33.88 224.4,93.15 59.31,59.27 93.19,140.97 93.19,224.44 0,83.84 -33.88,165.54 -93.19,224.85 -58.86,58.86 -141.02,92.78 -224.4,92.78z"/>
  <path class="fil8" d="M4521.64 5422.6c-83.43,0 -165.58,-33.92 -224.48,-93.19 -59.23,-58.86 -93.15,-140.56 -93.15,-224.4 0,-83.47 33.88,-165.17 93.15,-224.44 59.31,-59.31 141.01,-93.15 224.48,-93.15 83.84,0 165.54,33.88 224.85,93.15 58.86,59.27 92.74,140.97 92.74,224.44 0,83.43 -33.88,165.54 -92.74,224.4 -59.31,59.27 -141.01,93.19 -224.85,93.19z"/>
  <path class="fil14" d="M5563.56 5422.6c-83.84,0 -165.58,-33.92 -224.44,-92.78 -59.27,-59.27 -93.15,-141.01 -93.15,-224.85 0,-83.47 33.88,-165.17 93.15,-224.44 58.86,-59.31 140.6,-93.15 224.44,-93.15 83.43,0 165.58,33.88 224.44,93.15 59.27,59.27 93.15,140.97 93.15,224.44 0,83.84 -33.88,165.54 -93.15,224.85 -59.31,58.86 -141.01,92.78 -224.44,92.78z"/>
  <path class="fil15" d="M16580.48 20041.84c0,465.57 380.91,846.48 846.48,846.48l84.66 0c465.57,0 846.48,-380.95 846.48,-846.48l0 -550.14 -1777.62 0 0 550.14z"/>
  <path class="fil16" d="M18265.69 6437.86l-703.95 -1449.74c-50.82,-104.71 -134.04,-104.71 -184.86,0l-703.95 1449.74c-50.82,104.67 -92.45,285.59 -92.45,401.99l0 398.75 1777.62 0.01 0 -398.75c0,-116.41 -41.55,-297.33 -92.41,-402z"/>
  <rect class="fil17" x="16580.57" y="7196.48" width="1777.62" height="12337.91"/>
  <rect class="fil18" x="16580.57" y="7196.48" width="813.83" height="12337.91"/>
  <path class="fil19" d="M17376.88 4988.12l-393.96 811.25 972.74 0 -393.91 -811.25c-50.83,-104.75 -134.01,-104.75 -184.87,0z"/>
  <g id="_2417957704656">
  </g>
  <g id="_2417957702992">
  </g>
  <g id="_2417957698704">
  </g>
  <g id="_2417957696432">
  </g>
  <g id="_2417957694320">
  </g>
  <g id="_2417957694448">
  </g>
  <g id="_2417957693648">
  </g>
  <g id="_2417957693712">
  </g>
  <g id="_2417957692144">
  </g>
  <g id="_2417957690864">
  </g>
  <g id="_2417957690000">
  </g>
  <g id="_2417957691344">
  </g>
  <g id="_2417957689872">
  </g>
  <g id="_2417957755568">
  </g>
  <g id="_2417957756240">
  </g>
 </g>
</svg>
